<?xml version="1.0" encoding="UTF-8" standalone="no"?>
<svg
   xmlns:dc="http://purl.org/dc/elements/1.1/"
   xmlns:cc="http://creativecommons.org/ns#"
   xmlns:rdf="http://www.w3.org/1999/02/22-rdf-syntax-ns#"
   xmlns:svg="http://www.w3.org/2000/svg"
   xmlns="http://www.w3.org/2000/svg"
   xmlns:sodipodi="http://sodipodi.sourceforge.net/DTD/sodipodi-0.dtd"
   xmlns:inkscape="http://www.inkscape.org/namespaces/inkscape"
   viewBox="0 0 175.6 62"
   version="1.1"
   id="svg4"
   sodipodi:docname="audi-logo.svg"
   inkscape:version="0.92.2 (5c3e80d, 2017-08-06)">
  <metadata
     id="metadata10">
    <rdf:RDF>
      <cc:Work
         rdf:about="">
        <dc:format>image/svg+xml</dc:format>
        <dc:type
           rdf:resource="http://purl.org/dc/dcmitype/StillImage" />
      </cc:Work>
    </rdf:RDF>
  </metadata>
  <defs
     id="defs8" />
  <sodipodi:namedview
     pagecolor="#ffffff"
     bordercolor="#666666"
     borderopacity="1"
     objecttolerance="10"
     gridtolerance="10"
     guidetolerance="10"
     inkscape:pageopacity="0"
     inkscape:pageshadow="2"
     inkscape:window-width="1600"
     inkscape:window-height="837"
     id="namedview6"
     showgrid="false"
     inkscape:zoom="1.8052391"
     inkscape:cx="87.800003"
     inkscape:cy="31"
     inkscape:window-x="-8"
     inkscape:window-y="-8"
     inkscape:window-maximized="1"
     inkscape:current-layer="svg4" />
  <path
     d="M144.2 0c-7 0-13.5 2.3-18.8 6.2-5.3-3.9-11.8-6.2-18.8-6.2S93.1 2.3 87.8 6.2C82.5 2.3 76.1 0 69 0c-7 0-13.5 2.3-18.8 6.2C45 2.3 38.5 0 31.4 0 14.1 0 0 13.9 0 31s14.1 31 31.4 31c7 0 13.5-2.3 18.8-6.2C55.5 59.7 62 62 69 62s13.5-2.3 18.8-6.2C93 59.7 99.5 62 106.6 62c7 0 13.5-2.3 18.8-6.2 5.2 3.9 11.7 6.2 18.8 6.2 17.3 0 31.4-13.9 31.4-31S161.5 0 144.2 0zm-18.8 47c-3.8-4.3-6.1-9.9-6.1-16s2.3-11.7 6.1-16c3.8 4.3 6.1 9.9 6.1 16s-2.3 11.7-6.1 16zm-37.6 0c-3.8-4.3-6.1-9.9-6.1-16s2.3-11.7 6.1-16c3.8 4.3 6.1 9.9 6.1 16s-2.3 11.7-6.1 16zm-37.6 0c-3.8-4.3-6.1-9.9-6.1-16s2.3-11.7 6.1-16c3.8 4.3 6.1 9.9 6.1 16 .1 6.1-2.3 11.7-6.1 16zM6.5 31c0-13.5 11.2-24.5 24.9-24.5 5.1 0 9.9 1.5 13.9 4.2-4.8 5.4-7.7 12.5-7.7 20.3 0 7.8 2.9 14.9 7.7 20.3-4 2.6-8.7 4.2-13.9 4.2-13.7 0-24.9-11-24.9-24.5zm48.6 20.3c4.8-5.4 7.7-12.5 7.7-20.3 0-7.8-2.9-14.9-7.7-20.3 4-2.6 8.7-4.2 13.9-4.2s9.9 1.5 13.9 4.2c-4.8 5.4-7.8 12.5-7.8 20.3 0 7.8 2.9 14.9 7.8 20.3-4 2.6-8.7 4.2-13.9 4.2-5.1 0-9.9-1.6-13.9-4.2zm37.6 0c4.8-5.4 7.8-12.5 7.8-20.3 0-7.8-2.9-14.9-7.8-20.3 4-2.6 8.7-4.2 13.9-4.2s9.9 1.5 13.9 4.2c-4.8 5.4-7.8 12.5-7.8 20.3 0 7.8 2.9 14.9 7.8 20.3-4 2.6-8.7 4.2-13.9 4.2s-9.9-1.6-13.9-4.2zm51.5 4.2c-5.1 0-9.9-1.5-13.9-4.2 4.8-5.4 7.8-12.5 7.8-20.3 0-7.8-2.9-14.9-7.8-20.3 4-2.6 8.7-4.2 13.9-4.2 13.7 0 24.9 11 24.9 24.5s-11.2 24.5-24.9 24.5z"
     id="path2"
     inkscape:export-filename="G:\Users\suitedoalex\sites\audi-logo-3.png"
     inkscape:export-xdpi="109.3394"
     inkscape:export-ydpi="109.3394" />
</svg>
