<?xml version="1.0" encoding="UTF-8"?>
<!DOCTYPE svg PUBLIC "-//W3C//DTD SVG 1.1//EN" "http://www.w3.org/Graphics/SVG/1.1/DTD/svg11.dtd">
<!-- Creator: CorelDRAW 2019 (64-Bit) -->
<svg xmlns="http://www.w3.org/2000/svg" xml:space="preserve" width="178.734mm" height="87.8863mm" version="1.1" style="shape-rendering:geometricPrecision; text-rendering:geometricPrecision; image-rendering:optimizeQuality; fill-rule:evenodd; clip-rule:evenodd"
viewBox="0 0 178.5542 87.798"
 xmlns:xlink="http://www.w3.org/1999/xlink"
 xmlns:xodm="http://www.corel.com/coreldraw/odm/2003">
 <defs>
  <style type="text/css">
   <![CDATA[
    .fil0 {fill:#DC1E31}
    .fil2 {fill:black}
    .fil1 {fill:white}
   ]]>
  </style>
 </defs>
 <g id="Layer_x0020_1">
  <metadata id="CorelCorpID_0Corel-Layer"/>
  <g id="_799980304">
   <path class="fil0" d="M-0 43.899c0,-24.2447 39.9707,-43.899 89.2774,-43.899 49.307,0 89.2767,19.6542 89.2767,43.899 0,24.2448 -39.9697,43.8991 -89.2767,43.8991 -49.3067,0 -89.2774,-19.6542 -89.2774,-43.8991z"/>
   <path class="fil1" d="M95.3685 80.7295c-1.3165,0 -2.3839,1.0675 -2.3839,2.3843 0,1.3165 1.0674,2.3839 2.3839,2.3839 1.3174,0 2.3846,-1.0674 2.3846,-2.3839 0,-1.3168 -1.0672,-2.3843 -2.3846,-2.3843zm-6.0854 0l0 0c-1.3163,0 -2.3837,1.0675 -2.3837,2.3843 0,1.3165 1.0674,2.3839 2.3837,2.3839 1.3168,0 2.3842,-1.0674 2.3842,-2.3839 0,-1.3168 -1.0674,-2.3843 -2.3842,-2.3843zm-6.1715 0l0 0c-1.3168,0 -2.3839,1.0675 -2.3839,2.3843 0,1.3165 1.0671,2.3839 2.3839,2.3839 1.3165,0 2.3847,-1.0674 2.3847,-2.3839 0,-1.3168 -1.0682,-2.3843 -2.3847,-2.3843zm18.3429 -0.3409l0 0c-1.3168,0 -2.384,1.0674 -2.384,2.3843 0,1.3164 1.0672,2.3838 2.384,2.3838 1.3168,0 2.3839,-1.0674 2.3839,-2.3838 0,-1.3169 -1.0671,-2.3843 -2.3839,-2.3843zm-24.4281 0l0 0c-1.3167,0 -2.3838,1.0674 -2.3838,2.3843 0,1.3164 1.0671,2.3838 2.3838,2.3838 1.3169,0 2.3838,-1.0674 2.3838,-2.3838 0,-1.3169 -1.0669,-2.3843 -2.3838,-2.3843zm30.6309 -0.6064l0 0c-1.3167,0 -2.3839,1.0675 -2.3839,2.3839 0,1.3167 1.0672,2.3838 2.3839,2.3838 1.3169,0 2.384,-1.0671 2.384,-2.3838 0,-1.3164 -1.0671,-2.3839 -2.384,-2.3839zm-36.8338 0l0 0c-1.3162,0 -2.3837,1.0675 -2.3837,2.3839 0,1.3167 1.0675,2.3838 2.3837,2.3838 1.3168,0 2.384,-1.0671 2.384,-2.3838 0,-1.3164 -1.0672,-2.3839 -2.384,-2.3839zm43.2622 -0.717l0 0c-1.3167,0 -2.3837,1.0674 -2.3837,2.3843 0,1.3164 1.067,2.3839 2.3837,2.3839 1.3164,0 2.3841,-1.0675 2.3841,-2.3839 0,-1.3169 -1.0677,-2.3843 -2.3841,-2.3843zm-49.6901 0l0 0c-1.3169,0 -2.3844,1.0674 -2.3844,2.3843 0,1.3164 1.0675,2.3839 2.3844,2.3839 1.3164,0 2.3839,-1.0675 2.3839,-2.3839 0,-1.3169 -1.0675,-2.3843 -2.3839,-2.3843zm56.1187 -1.0606l0 0c-1.3166,0 -2.3841,1.0675 -2.3841,2.384 0,1.3168 1.0675,2.3843 2.3841,2.3843 1.3165,0 2.3841,-1.0675 2.3841,-2.3843 0,-1.3165 -1.0676,-2.384 -2.3841,-2.384zm-62.5473 0l0 0c-1.3167,0 -2.3837,1.0675 -2.3837,2.384 0,1.3168 1.067,2.3843 2.3837,2.3843 1.3169,0 2.3839,-1.0675 2.3839,-2.3843 0,-1.3165 -1.067,-2.384 -2.3839,-2.384zm68.9589 -1.4061l0 0c-1.3173,0 -2.3838,1.0676 -2.3838,2.3839 0,1.3168 1.0665,2.3843 2.3838,2.3843 1.3174,0 2.3838,-1.0675 2.3838,-2.3843 0,-1.3163 -1.0664,-2.3839 -2.3838,-2.3839zm-75.3708 0l0 0c-1.3167,0 -2.3842,1.0676 -2.3842,2.3839 0,1.3168 1.0675,2.3843 2.3842,2.3843 1.3165,0 2.3839,-1.0675 2.3839,-2.3843 0,-1.3163 -1.0674,-2.3839 -2.3839,-2.3839zm81.9782 -1.584l0 0c-1.3175,0 -2.3852,1.067 -2.3852,2.3838 0,1.3164 1.0677,2.3839 2.3852,2.3839 1.316,0 2.3838,-1.0675 2.3838,-2.3839 0,-1.3168 -1.0678,-2.3838 -2.3838,-2.3838zm-88.585 0l0 0c-1.3165,0 -2.384,1.067 -2.384,2.3838 0,1.3164 1.0675,2.3839 2.384,2.3839 1.3168,0 2.3844,-1.0675 2.3844,-2.3839 0,-1.3168 -1.0676,-2.3838 -2.3844,-2.3838zm94.7867 -1.9848l0 0c-1.3172,0 -2.3838,1.0675 -2.3838,2.3839 0,1.3167 1.0666,2.3843 2.3838,2.3843 1.3163,0 2.384,-1.0676 2.384,-2.3843 0,-1.3164 -1.0677,-2.3839 -2.384,-2.3839zm-100.988 0l0 0c-1.3168,0 -2.3842,1.0675 -2.3842,2.3839 0,1.3167 1.0674,2.3843 2.3842,2.3843 1.3164,0 2.3839,-1.0676 2.3839,-2.3843 0,-1.3164 -1.0675,-2.3839 -2.3839,-2.3839zm107.4224 -2.5007l0 0c-1.316,0 -2.3837,1.0672 -2.3837,2.3839 0,1.3168 1.0677,2.3839 2.3837,2.3839 1.3162,0 2.3838,-1.0671 2.3838,-2.3839 0,-1.3167 -1.0676,-2.3839 -2.3838,-2.3839zm-113.8578 0l0 0c-1.3169,0 -2.3842,1.0672 -2.3842,2.3839 0,1.3168 1.0673,2.3839 2.3842,2.3839 1.3164,0 2.3839,-1.0671 2.3839,-2.3839 0,-1.3167 -1.0675,-2.3839 -2.3839,-2.3839zm120.0999 -2.9342l0 0c-1.3173,0 -2.3837,1.0675 -2.3837,2.3837 0,1.3169 1.0664,2.384 2.3837,2.384 1.3162,0 2.3839,-1.0671 2.3839,-2.384 0,-1.3162 -1.0677,-2.3837 -2.3839,-2.3837zm-126.3415 0l0 0c-1.3169,0 -2.3839,1.0675 -2.3839,2.3837 0,1.3169 1.067,2.384 2.3839,2.384 1.3166,0 2.3843,-1.0671 2.3843,-2.384 0,-1.3162 -1.0677,-2.3837 -2.3843,-2.3837zm132.5275 -3.6163l0 0c-1.316,0 -2.3837,1.0675 -2.3837,2.3838 0,1.3167 1.0677,2.3842 2.3837,2.3842 1.3162,0 2.3839,-1.0675 2.3839,-2.3842 0,-1.3163 -1.0677,-2.3838 -2.3839,-2.3838zm-138.7138 0l0 0c-1.3163,0 -2.3839,1.0675 -2.3839,2.3838 0,1.3167 1.0676,2.3842 2.3839,2.3842 1.3169,0 2.3844,-1.0675 2.3844,-2.3842 0,-1.3163 -1.0675,-2.3838 -2.3844,-2.3838zm144.5992 -4.4154l0 0c-1.3174,0 -2.385,1.0675 -2.385,2.3839 0,1.3172 1.0676,2.3843 2.385,2.3843 1.3161,0 2.3838,-1.0671 2.3838,-2.3843 0,-1.3164 -1.0677,-2.3839 -2.3838,-2.3839zm-150.4842 0l0 0c-1.3162,0 -2.3837,1.0675 -2.3837,2.3839 0,1.3172 1.0675,2.3843 2.3837,2.3843 1.3169,0 2.3844,-1.0671 2.3844,-2.3843 0,-1.3164 -1.0675,-2.3839 -2.3844,-2.3839zm155.4832 -5.517l0 0c-1.3173,0 -2.3839,1.0674 -2.3839,2.3838 0,1.3167 1.0666,2.3842 2.3839,2.3842 1.316,0 2.3839,-1.0675 2.3839,-2.3842 0,-1.3164 -1.0679,-2.3838 -2.3839,-2.3838zm-160.4823 0l0 0c-1.3165,0 -2.384,1.0674 -2.384,2.3838 0,1.3167 1.0675,2.3842 2.384,2.3842 1.3167,0 2.3842,-1.0675 2.3842,-2.3842 0,-1.3164 -1.0675,-2.3838 -2.3842,-2.3838zm163.6014 -5.9265l0 0c-1.3174,0 -2.3839,1.0674 -2.3839,2.3838 0,1.3167 1.0665,2.3843 2.3839,2.3843 1.3173,0 2.3851,-1.0676 2.3851,-2.3843 0,-1.3164 -1.0678,-2.3838 -2.3851,-2.3838zm-166.7209 0l0 0c-1.3163,0 -2.3838,1.0674 -2.3838,2.3838 0,1.3167 1.0675,2.3843 2.3838,2.3843 1.3169,0 2.3844,-1.0676 2.3844,-2.3843 0,-1.3164 -1.0675,-2.3838 -2.3844,-2.3838zm168.0187 -6.6046l0 0c-1.316,0 -2.3838,1.067 -2.3838,2.3838 0,1.3168 1.0678,2.3839 2.3838,2.3839 1.3161,0 2.3839,-1.0671 2.3839,-2.3839 0,-1.3168 -1.0678,-2.3838 -2.3839,-2.3838zm-169.316 0l0 0c-1.317,0 -2.384,1.067 -2.384,2.3838 0,1.3168 1.067,2.3839 2.384,2.3839 1.3165,0 2.3838,-1.0671 2.3838,-2.3839 0,-1.3168 -1.0673,-2.3838 -2.3838,-2.3838zm168.0182 -6.6051l0 0c-1.3174,0 -2.3839,1.0676 -2.3839,2.384 0,1.3167 1.0665,2.3843 2.3839,2.3843 1.3173,0 2.3851,-1.0676 2.3851,-2.3843 0,-1.3164 -1.0678,-2.384 -2.3851,-2.384zm-166.7209 0l0 0c-1.3167,0 -2.3838,1.0676 -2.3838,2.384 0,1.3167 1.0671,2.3843 2.3838,2.3843 1.3169,0 2.3839,-1.0676 2.3839,-2.3843 0,-1.3164 -1.067,-2.384 -2.3839,-2.384zm163.6017 -5.9264l0 0c-1.3173,0 -2.3839,1.0675 -2.3839,2.3839 0,1.3167 1.0666,2.3841 2.3839,2.3841 1.316,0 2.3839,-1.0674 2.3839,-2.3841 0,-1.3164 -1.0679,-2.3839 -2.3839,-2.3839zm-160.4823 0l0 0c-1.3165,0 -2.384,1.0675 -2.384,2.3839 0,1.3167 1.0675,2.3841 2.384,2.3841 1.3167,0 2.3842,-1.0674 2.3842,-2.3841 0,-1.3164 -1.0675,-2.3839 -2.3842,-2.3839zm155.4833 -5.5168l0 0c-1.3174,0 -2.385,1.0672 -2.385,2.384 0,1.3163 1.0676,2.3838 2.385,2.3838 1.3161,0 2.3838,-1.0675 2.3838,-2.3838 0,-1.3168 -1.0677,-2.384 -2.3838,-2.384zm-150.4842 0l0 0c-1.3162,0 -2.3837,1.0672 -2.3837,2.384 0,1.3163 1.0675,2.3838 2.3837,2.3838 1.3169,0 2.3844,-1.0675 2.3844,-2.3838 0,-1.3168 -1.0675,-2.384 -2.3844,-2.384zm144.5988 -4.4152l0 0c-1.316,0 -2.3837,1.0671 -2.3837,2.3839 0,1.3163 1.0677,2.3837 2.3837,2.3837 1.3162,0 2.3839,-1.0674 2.3839,-2.3837 0,-1.3168 -1.0677,-2.3839 -2.3839,-2.3839zm-138.7138 0l0 0c-1.3163,0 -2.3839,1.0671 -2.3839,2.3839 0,1.3163 1.0676,2.3837 2.3839,2.3837 1.3169,0 2.3844,-1.0674 2.3844,-2.3837 0,-1.3168 -1.0675,-2.3839 -2.3844,-2.3839zm132.5279 -3.6167l0 0c-1.3173,0 -2.3837,1.0675 -2.3837,2.3838 0,1.3167 1.0664,2.3839 2.3837,2.3839 1.3162,0 2.3839,-1.0672 2.3839,-2.3839 0,-1.3163 -1.0677,-2.3838 -2.3839,-2.3838zm-126.3415 0l0 0c-1.3165,0 -2.3839,1.0675 -2.3839,2.3838 0,1.3167 1.0674,2.3839 2.3839,2.3839 1.3166,0 2.3843,-1.0672 2.3843,-2.3839 0,-1.3163 -1.0677,-2.3838 -2.3843,-2.3838zm120.0995 -2.9337l0 0c-1.316,0 -2.3837,1.0671 -2.3837,2.3839 0,1.3163 1.0677,2.3838 2.3837,2.3838 1.3162,0 2.3838,-1.0675 2.3838,-2.3838 0,-1.3168 -1.0676,-2.3839 -2.3838,-2.3839zm-113.8578 0l0 0c-1.3169,0 -2.3842,1.0671 -2.3842,2.3839 0,1.3163 1.0673,2.3838 2.3842,2.3838 1.3164,0 2.3839,-1.0675 2.3839,-2.3838 0,-1.3168 -1.0675,-2.3839 -2.3839,-2.3839zm107.4234 -2.5011l0 0c-1.3172,0 -2.3838,1.0672 -2.3838,2.384 0,1.3168 1.0666,2.3838 2.3838,2.3838 1.3163,0 2.384,-1.067 2.384,-2.3838 0,-1.3168 -1.0677,-2.384 -2.384,-2.384zm-100.988 0l0 0c-1.3168,0 -2.3839,1.0672 -2.3839,2.384 0,1.3168 1.0671,2.3838 2.3839,2.3838 1.3167,0 2.3839,-1.067 2.3839,-2.3838 0,-1.3168 -1.0672,-2.384 -2.3839,-2.384zm50.4935 -1.0605l0 0c44.3486,0 80.301,15.6517 80.301,34.9592 0,19.3075 -35.9524,34.9588 -80.301,34.9588 -44.3486,0 -80.3001,-15.6513 -80.3001,-34.9588 0,-19.3075 35.9515,-34.9592 80.3001,-34.9592zm44.2928 -0.9238l0 0c-1.3175,0 -2.3852,1.0672 -2.3852,2.3839 0,1.3164 1.0677,2.3838 2.3852,2.3838 1.316,0 2.3838,-1.0674 2.3838,-2.3838 0,-1.3167 -1.0678,-2.3839 -2.3838,-2.3839zm-88.5846 0l0 0c-1.3169,0 -2.3844,1.0672 -2.3844,2.3839 0,1.3164 1.0675,2.3838 2.3844,2.3838 1.3164,0 2.384,-1.0674 2.384,-2.3838 0,-1.3167 -1.0676,-2.3839 -2.384,-2.3839zm81.9773 -1.5848l0 0c-1.3173,0 -2.3838,1.0671 -2.3838,2.3838 0,1.3164 1.0665,2.3839 2.3838,2.3839 1.3174,0 2.3838,-1.0675 2.3838,-2.3839 0,-1.3167 -1.0664,-2.3838 -2.3838,-2.3838zm-75.3708 0l0 0c-1.3167,0 -2.3842,1.0671 -2.3842,2.3838 0,1.3164 1.0675,2.3839 2.3842,2.3839 1.3167,0 2.3839,-1.0675 2.3839,-2.3839 0,-1.3167 -1.0672,-2.3838 -2.3839,-2.3838zm68.9593 -1.4062l0 0c-1.3166,0 -2.3841,1.0674 -2.3841,2.3839 0,1.3167 1.0675,2.3842 2.3841,2.3842 1.3165,0 2.3841,-1.0675 2.3841,-2.3842 0,-1.3165 -1.0676,-2.3839 -2.3841,-2.3839zm-62.5473 0l0 0c-1.3167,0 -2.3837,1.0674 -2.3837,2.3839 0,1.3167 1.067,2.3842 2.3837,2.3842 1.3169,0 2.3839,-1.0675 2.3839,-2.3842 0,-1.3165 -1.067,-2.3839 -2.3839,-2.3839zm56.1188 -1.0605l0 0c-1.3167,0 -2.3837,1.0674 -2.3837,2.3838 0,1.3168 1.067,2.3839 2.3837,2.3839 1.3164,0 2.3841,-1.0671 2.3841,-2.3839 0,-1.3164 -1.0677,-2.3838 -2.3841,-2.3838zm-49.6901 0l0 0c-1.3169,0 -2.3844,1.0672 -2.3844,2.3838 0,1.3168 1.0675,2.3839 2.3844,2.3839 1.3164,0 2.3839,-1.0671 2.3839,-2.3839 0,-1.3166 -1.0675,-2.3838 -2.3839,-2.3838zm43.2617 -0.7165l0 0c-1.3167,0 -2.3839,1.0674 -2.3839,2.3838 0,1.3168 1.0672,2.3842 2.3839,2.3842 1.3169,0 2.384,-1.0674 2.384,-2.3842 0,-1.3164 -1.0671,-2.3838 -2.384,-2.3838zm-36.8338 0l0 0c-1.3162,0 -2.3837,1.0674 -2.3837,2.3838 0,1.3168 1.0675,2.3842 2.3837,2.3842 1.3168,0 2.384,-1.0674 2.384,-2.3842 0,-1.3164 -1.0672,-2.3838 -2.384,-2.3838zm30.631 -0.607l0 0c-1.3168,0 -2.384,1.0676 -2.384,2.384 0,1.3168 1.0672,2.3839 2.384,2.3839 1.3168,0 2.3839,-1.0671 2.3839,-2.3839 0,-1.3164 -1.0671,-2.384 -2.3839,-2.384zm-24.4281 0l0 0c-1.3167,0 -2.3838,1.0676 -2.3838,2.384 0,1.3168 1.0671,2.3839 2.3838,2.3839 1.3169,0 2.3838,-1.0671 2.3838,-2.3839 0,-1.3164 -1.0669,-2.384 -2.3838,-2.384zm18.3422 -0.3404l0 0c-1.3165,0 -2.3839,1.0674 -2.3839,2.3838 0,1.3168 1.0674,2.384 2.3839,2.384 1.3174,0 2.3846,-1.0672 2.3846,-2.384 0,-1.3164 -1.0672,-2.3838 -2.3846,-2.3838zm-6.0854 0l0 0c-1.3163,0 -2.3837,1.0674 -2.3837,2.3838 0,1.3168 1.0674,2.384 2.3837,2.384 1.3168,0 2.3842,-1.0672 2.3842,-2.384 0,-1.3164 -1.0674,-2.3838 -2.3842,-2.3838zm-6.1715 0l0 0c-1.3168,0 -2.3839,1.0674 -2.3839,2.3838 0,1.3168 1.0671,2.384 2.3839,2.384 1.3172,0 2.3847,-1.0672 2.3847,-2.384 0,-1.3164 -1.0675,-2.3838 -2.3847,-2.3838zm6.1287 -1.8569l0 0c49.0409,0 88.7965,19.4554 88.7965,43.4552 0,23.9998 -39.7556,43.4552 -88.7965,43.4552 -49.0407,0 -88.7965,-19.4554 -88.7965,-43.4552 0,-23.9998 39.7558,-43.4552 88.7965,-43.4552z"/>
   <path class="fil2" d="M100.4132 45.2046l-1.4159 4.9789 2.9233 0 -1.5074 -4.9789zm-4.3842 -13.6209l0 0 5.0822 0 3.1605 3.162 7.5654 27.238 -4.9629 0 -3.1607 -3.162 -0.3786 -1.3429 -6.1188 0 -1.0872 4.505 -4.5047 0 -3.1603 -3.162 7.5652 -27.238z"/>
   <path class="fil2" d="M72.3119 31.5836l9.7636 0c0.9525,0.0531 1.5002,0.2075 2.4889,0.9514l3.0719 3.1413c0.3733,0.5631 0.6034,1.736 0.7535,2.7363l-0.2226 3.6362 -4.8789 0 -3.1472 -3.1392 -3.0816 -0.0023c-0.0266,5.1241 -0.0532,10.2477 -0.0798,15.3718l1.8871 0c0.6953,0 1.2587,-0.5629 1.2587,-1.2571l0 -5.6007 -1.9807 0 0 -3.7139 7.6016 0 2.4955 2.6425c0,3.8393 -0.0746,7.3825 -0.0746,11.2217 0,2.0257 -2.6068,4.4084 -4.6342,4.4084l-8.0584 0c-0.9962,0.0497 -1.9859,-0.4592 -2.5379,-0.9654l-3.5127 -3.5468c-0.3737,-0.5632 -0.7932,-1.5288 -0.783,-2.3169l0 -19.9c0,-2.0257 1.6433,-3.6675 3.6709,-3.6675z"/>
   <path class="fil2" d="M127.5918 31.5836l18.3437 0 1.4793 2.061 0 5.616 -4.6898 0c0.0097,7.5746 0.0196,15.1488 0.0281,22.7231l-5.6102 0 -3.1838 -3.162 0 -19.561 -3.7595 0 -2.6078 -2.0609 0 -5.6161z"/>
   <path class="fil2" d="M45.1195 31.5836l5.8591 0 3.1593 3.162 -0.001 19.536 1.4407 0c0.6942,0 1.257,-0.5629 1.257,-1.257l0 -21.4409 5.6144 0 3.1592 3.162 0 23.5703c0,2.0255 -1.6415,3.6677 -3.6667,3.6677l-9.9959 0c-1.0343,-0.0477 -1.6901,-0.4422 -2.4567,-1.0212l-3.6139 -3.5554c-0.373,-0.5632 -0.6297,-1.3102 -0.7555,-2.2533l0 -23.5701z"/>
   <polygon class="fil2" points="148.8209,31.5836 154.4531,31.5836 157.6221,34.7457 157.6221,61.9837 151.9901,61.9837 148.8209,58.8217 "/>
   <path class="fil2" d="M106.8814 31.5836l18.3435 0 1.4794 2.061 0 5.616 -4.6899 0c0.0098,7.5746 -0.0718,15.1488 -0.062,22.7231l-5.5174 0 -3.1867 -3.162 0 -19.561 -3.7597 0 -2.6072 -2.0609 0 -5.6161z"/>
   <path class="fil2" d="M29.684 49.8119l0 4.4697 1.8831 0c1.3033,0 2.36,-1.0595 2.36,-2.3671l0 -2.1026 -4.2431 0zm0 -10.5261l0 0 0 2.8245 1.4999 0c1.0225,0 1.8513,-0.8313 1.8513,-1.8567l0 -0.9677 -3.3512 0zm-8.7514 -7.7022l0 0 14.254 0c0.8591,0.0998 1.3705,0.2665 2.3291,0.8124 0.9158,0.6319 2.7095,2.5262 3.4214,3.4942 0.351,0.5313 0.7081,0.9488 0.8494,2.3142l0 5.8791c0,1.4327 -0.8683,2.6615 -2.1061,3.1868 1.7325,1.3817 2.9762,2.3344 2.9984,5.2487l0 4.4878c0,2.7487 -2.2221,4.9769 -4.9626,4.9769l-13.6324 0 -3.1511 -3.162 0 -27.238z"/>
   <path class="fil1" d="M45.1195 31.5836l5.8522 0 -0.0016 21.4263c0,0.6939 0.562,1.2562 1.2555,1.2562l3.3391 0c0.6931,0 1.2553,-0.5623 1.2553,-1.2562l0 -21.4263 5.6074 0 0 23.5543c0,2.0241 -1.6394,3.6652 -3.662,3.6652l-9.9839 0c-2.0225,0 -3.6621,-1.6411 -3.6621,-3.6652l0 -23.5543z"/>
   <path class="fil1" d="M72.3076 31.5836l9.753 0c2.0253,0 3.6665,1.6411 3.6665,3.6652l0 3.6343 -5.615 0 0 -1.5064c0,-0.6938 -0.562,-1.2561 -1.2566,-1.2561l-3.343 0c-0.6947,0 -1.2576,0.5623 -1.2576,1.2561l0 15.6331c0,0.6939 0.5629,1.2562 1.2576,1.2562l3.343 0c0.6946,0 1.2566,-0.5623 1.2566,-1.2562l0 -5.5976 -1.9786 0 0 -3.7118 7.5936 0 0 11.4374c0,2.0241 -1.6412,3.6652 -3.6665,3.6652l-9.753 0c-2.0252,0 -3.6666,-1.6411 -3.6666,-3.6652l0 -19.8891c0,-2.0241 1.6414,-3.6652 3.6666,-3.6652z"/>
   <polygon class="fil1" points="148.8209,58.8032 154.4423,58.8032 154.4423,31.5836 148.8209,31.5836 "/>
   <polygon class="fil1" points="127.5918,31.5836 145.9355,31.5836 145.9355,37.1958 139.5693,37.1958 139.5693,58.8032 133.9591,58.8032 133.9591,37.1958 127.5918,37.1958 "/>
   <polygon class="fil1" points="106.8814,31.5836 125.2249,31.5836 125.2249,37.1958 118.8582,37.1958 118.8582,58.8032 113.2483,58.8032 113.2483,37.1958 106.8814,37.1958 "/>
   <path class="fil1" d="M98.5601 40.5844l-2.5221 8.9445 5.0443 0 -2.5223 -8.9445zm-2.5382 -9.0008l0 0 5.0767 0 7.558 27.2195 -4.9579 0 -1.2697 -4.5019 -7.7374 0 -1.2698 4.5019 -4.9578 0 7.558 -27.2195z"/>
   <path class="fil1" d="M26.5238 46.6399l0 7.6262 5.0263 0c1.3016,0 2.3564,-1.059 2.3564,-2.365l0 -2.8959c0,-1.3063 -1.0548,-2.3653 -2.3564,-2.3653l-5.0263 0zm0 -10.5192l0 0 0 5.9823 4.6438 0c1.0209,0 1.8482,-0.8306 1.8482,-1.8551l0 -2.272c0,-1.0246 -0.8274,-1.8551 -1.8482,-1.8551l-4.6438 0zm-5.5913 -4.537l0 0c4.7439,0 9.4877,0 14.2311,0 1.902,0 3.4437,1.5474 3.4437,3.4563l0 5.875c0,1.9089 -1.5417,3.4562 -3.4437,3.4562l0.378 0.1013c2.2578,0.4634 3.9563,2.4691 3.9563,4.8726l0 4.4846c0,2.7467 -2.2186,4.9735 -4.9548,4.9735 -4.5371,0 -9.0738,0 -13.6106,0l0 -27.2195z"/>
   <path class="fil2" d="M90.6692 20.9336l0 3.3044 3.3089 0c0.9142,0 1.6552,-0.7398 1.6552,-1.652 0,-0.9126 -0.7411,-1.6523 -1.6552,-1.6523l-3.3089 0zm3.8082 -4.9464l0 0 -3.8082 0.0085 0 2.2563 3.8082 0c0.6383,0 1.1559,-0.559 1.1559,-1.1541 0,-0.5949 -0.5177,-1.1107 -1.1559,-1.1107zm-15.4074 -2.6732l0 0 16.854 0c1.9633,0 3.5542,1.588 3.5542,3.5469 0,0.9796 -0.3973,1.8665 -1.041,2.5083l-0.6005 0.4041 0.4748 0.3194c0.7206,0.7196 1.2375,1.3623 1.1666,2.8115 0,2.196 -1.7833,4.0197 -3.9838,4.0197l-16.4244 -0.0043 0 -4.6224 2.3983 0 0 1.9408 5.7566 0 0 -3.3044 -2.0291 0 0 0.963 -2.3969 0 0 -4.6221 2.3969 0 0 0.9774 2.0291 0 0 -2.2563 -5.7566 0 0 1.9407 -2.3983 0 0 -4.6225z"/>
  </g>
 </g>
</svg>
