<?xml version="1.0" encoding="utf-8"?>
<!-- Generator: Adobe Illustrator 26.4.1, SVG Export Plug-In . SVG Version: 6.00 Build 0)  -->
<svg version="1.0" id="katman_1" xmlns="http://www.w3.org/2000/svg" xmlns:xlink="http://www.w3.org/1999/xlink" x="0px" y="0px"
	 viewBox="0 0 716 538" style="enable-background:new 0 0 716 538;" xml:space="preserve">
<style type="text/css">
	.st0{fill:#14120E;}
</style>
<g>
	<path class="st0" d="M505.68,441.5c-5.23-0.03-10.47,0.02-15.69-0.05c-1.01-0.01-2.12-0.94-2.49-1.81
		c-0.84-1.98,0.2-4.71,2.49-4.79c5.37-0.18,10.81-0.13,16.18,0.03c1.18,0.03,2.39,1.64,2.46,2.8c0.09,1.48-0.45,3.03-1.97,3.6
		C506.44,441.37,505.92,441.5,505.68,441.5"/>
	<path class="st0" d="M355.11,384.64c-9.84-0.33-19.52-1.79-28.94-4.61c-18.1-5.42-34.67-15.34-48.55-28.04
		c-7.37-6.74-13.98-14.2-19.92-22.21c-15.72-21.18-26.1-45.92-31.63-71.6c-4.76-22.08-5.56-44.77-3.27-67.19
		c2.74-26.72,11.16-53.3,24.69-76.51c5.26-9.04,11.31-17.62,18.19-25.5c12.74-14.6,28.14-26.77,45.8-34.81
		c8.89-4.05,18.32-6.93,27.95-8.6c16.78-2.89,34.24-1.74,50.52,3.15c17.85,5.37,34.33,15.16,48.06,27.72
		c14.77,13.51,26.86,29.92,35.78,47.85c2.55,5.13,4.84,10.37,6.95,15.69c7.98,20.07,12.72,43.64,13.51,65.23
		c0.6,16.43-0.42,32.9-3.58,49.04c-3.15,16.09-8.2,31.74-15.16,46.59c-10.65,22.74-26.06,42.91-45.84,58.4
		c-10.83,8.47-23.25,15.35-36.29,19.67c-8.46,2.79-17.15,4.45-25.99,5.37C363.3,384.67,359.2,384.75,355.11,384.64 M357.95,118.97
		c39.93,29.77,79.83,59.58,119.78,89.34c0.49,0.37,0.56-0.04,0.5-0.65c-0.24-2.6-0.31-5.23-0.48-7.85
		c-1.44-20.33-6.09-40.63-14.21-59.34c-3.45-7.96-7.45-15.74-12.12-23.05c-4.91-7.68-10.5-14.85-16.62-21.58
		c-6.29-6.91-13.58-13.01-21.31-18.24c-6.4-4.33-13.38-8.05-20.6-10.76c-6.66-2.5-13.55-4.48-20.6-5.53
		c-3.73-0.55-8.03-1.05-11.77-1.09c-8.39-0.1-16.87,0.62-25.01,2.71c-15.3,3.91-29.43,11.12-41.69,21.12
		c-9.86,8.04-18.42,17.56-25.71,27.99c-11.26,16.09-19.29,34.48-24.23,53.46c-3.47,13.33-5.38,26.95-6.04,40.71
		c-0.04,0.81,0,1.72,0.04,2.51L357.95,118.97z M349.72,368.08c5.54,0.44,11.11,0.49,16.68-0.01c18.36-1.75,35.87-8.77,50.77-19.66
		c16.42-12.02,29.35-27.89,39.2-45.62l-98.41-73.19c-2.4,1.81-4.84,3.58-7.25,5.37c-27.95,20.8-55.85,41.68-83.87,62.39
		c-2.44,1.8-4.85,3.64-7.26,5.48c8.75,15.78,20.12,30.39,34.23,41.75c11.95,9.62,25.78,17.14,40.71,20.89
		C339.52,366.75,344.56,367.61,349.72,368.08 M468.41,272.62c0.23,0.17,0.47,0.35,0.71,0.53c1.55-4.39,2.68-8.97,3.71-13.51
		c0.99-4.4,1.66-8.84,2.36-13.3l-117.26-87.27c-38.32,28.64-76.67,57.24-115.13,85.68c-0.67,0.5-1.33,1.02-2,1.52
		c1.12,8.83,3,17.65,5.76,26.13c0.07,0.24,0.26,0.45,0.39,0.67l110.99-82.93C394.77,217.61,431.64,245.05,468.41,272.62"/>
	<path class="st0" d="M206.28,492.76l-0.03-45.99l10.29,0.01l-0.01,45.6c-0.24,0.13-0.44,0.38-0.71,0.39
		C212.65,492.88,209.46,492.75,206.28,492.76"/>
	<path class="st0" d="M479.69,441.5c-5.24-0.03-10.47,0.12-15.69-0.02c-0.65-0.02-1.72-0.86-2.06-1.34
		c-0.92-1.29-0.85-2.95,0.1-4.15c0.5-0.63,1.16-1.11,1.96-1.12c5.54-0.12,11.14-0.3,16.67,0.08c1.15,0.08,2.17,2.17,2.11,3.24
		C482.7,439.81,481.43,441.5,479.69,441.5"/>
	<path class="st0" d="M586.6,492.9c-3.15-0.01-6.29-0.01-9.43,0.01c-0.06-0.27-0.18-0.53-0.18-0.8c0-7.85,0.03-15.7,0.02-23.54
		c-0.02-7.5-5.53-12.7-12.98-12.7c-8.98,0-17.98,0.09-26.95-0.09l0.02,37.14l-10.27-0.04c0.01-14.97,0.03-29.94,0-44.91
		c0-0.34,0.04-0.68,0.07-1.02c13.19,0.11,26.38-0.18,39.58,0.1c7.19,0.15,14.84,3.67,18.25,10.24c1.52,2.92,2.49,6.06,2.59,9.32
		c0.24,8.32-0.05,16.68,0.01,25.01c0,0.44-0.05,0.85-0.12,1.28C587.02,492.9,586.81,492.9,586.6,492.9"/>
	<path class="st0" d="M512.05,492.9c-18.26-0.03-36.52-0.01-54.78-0.03v-45.74c0.27-0.05,0.54-0.16,0.83-0.16
		c18.23,0.12,36.47,0.08,54.7,0l0.03,8.9l-45.25-0.03l0.03,9.61l39.6,0.01c-0.01,2.51,0,5.01,0.01,7.52c0,0.29-0.12,0.58-0.22,0.86
		c-0.28,0.02-0.56,0.05-0.83,0.05c-12.88,0.09-25.77-0.02-38.64,0.01l-0.01,10.1c0.29,0.01,0.59,0.04,0.89,0.04
		c14.76,0.1,29.53,0.01,44.3-0.01c0.18,2.94,0.22,5.92,0.05,8.88C512.52,492.9,512.29,492.9,512.05,492.9"/>
	<path class="st0" d="M149.61,492.27c-7.53-0.69-14.57-4.82-18.35-11.43c-3.2-5.6-3.3-12.11-1.58-18.15
		c2.35-8.26,10.33-13.69,18.46-15.05c3.9-0.65,7.83-0.54,11.77-0.63c9.91-0.2,19.85,0.02,29.77,0l-0.03,8.69
		c-10.57-0.01-21.13-0.06-31.7-0.01c-2.46,0.01-4.95,0.17-7.36,0.56c-5.08,0.82-9.65,4.83-10.82,9.88
		c-1.68,7.23,1.33,13.83,8.37,16.47c1.86,0.69,3.91,1.01,5.88,1.07c11.89,0.33,23.81,0.11,35.71,0.12l-0.03,8.81
		c-3.56-0.06-7.12-0.02-10.67,0.08C169.57,492.94,159.04,493.03,149.61,492.27"/>
	<path class="st0" d="M253.74,492.75l0.01-37.18l-25.67,0.01c-0.07-0.41-0.13-0.82-0.12-1.23c0.01-2.53,0.03-5.09,0.14-7.59
		l61.64,0.07l-0.12,8.75h-25.47c-0.06,0.25-0.18,0.48-0.18,0.74c0,11.76,0,23.54,0.04,35.31c0,0.42-0.1,0.72-0.22,1.11
		L253.74,492.75z"/>
	<path class="st0" d="M364.92,492.77c-4.57-0.03-9.22,0.19-13.73-0.18c-0.18-0.02-0.35-0.14-0.49-0.24
		c-10.01-7.21-19.97-14.49-29.92-21.77c-0.31-0.22-0.59-0.47-0.87-0.72l-0.06-2.52c0.31-0.03,0.62-0.11,0.93-0.11
		c8.33,0,16.68,0.03,25.01,0.02c2.15,0,4.8-0.32,6.21-2.11c1.36-1.74,1.35-4.41,0.64-6.38c-0.69-1.93-2.98-2.91-4.89-2.91
		c-11.93,0.03-23.85,0.03-35.77,0c-0.24,0.2-0.59,0.57-0.59,0.95c0.05,12-0.03,24.01,0.04,36.01c-0.32,0.03-0.64,0.08-0.95,0.09
		c-3.04,0.04-6.08-0.01-9.13,0.01c-0.05-0.27-0.16-0.52-0.16-0.79c0-14.71,0.05-29.43-0.06-44.14c-0.01-0.31,0.08-0.61,0.19-0.89
		c0.27-0.02,0.55-0.08,0.82-0.08c15.36,0,30.73-0.01,46.1,0.01c3.43,0,6.89,1,9.81,2.74c2.92,1.74,4.82,4.76,5.37,8.03
		c0.87,5.08,0.31,10.37-3.9,13.69c-4.36,3.43-14.27,3.41-19.62,3.09c8.6,5.72,17.02,11.7,25.55,17.52l0.05,0.68H364.92z"/>
	<path class="st0" d="M404.65,494c-6.33,0.01-12.66-0.91-18.15-4.21c-4.42-2.66-7.77-7.04-9.35-11.89
		c-1.91-5.86-1.51-12.53,0.93-18.15c2.79-6.42,9.07-11.16,15.78-12.77c2.7-0.65,5.56-0.96,8.34-1.04c3.58-0.12,7.19-0.13,10.79-0.12
		c7.03,0.01,14.15,0.48,20.34,4.13c5.3,3.11,9.34,8.63,10.49,14.71c1.34,7.12-0.07,14.32-4.49,20.11
		c-4.09,5.35-10.97,8.38-17.51,8.89C416.09,494.03,410.38,493.99,404.65,494 M398.51,484.27c4.92,0.74,10.93,0.67,15.95,0.51
		c2.45-0.08,4.92-0.13,7.36-0.54c3.71-0.63,7.62-2.94,9.45-6.35c2.25-4.2,2.94-9.72,1.04-14.22c-1.69-4.01-4.86-6.75-9.03-8.01
		c-2.88-0.87-7.74-1.07-10.79-1.06c-4.71,0.01-9.58-0.18-14.22,0.69c-2.47,0.46-5.02,1.67-6.87,3.42c-3.02,2.85-4.42,6.68-4.5,10.85
		C386.75,476.75,390.95,483.14,398.51,484.27"/>
</g>
</svg>
