<?xml version="1.0"?>
<svg width="500" height="500" xmlns="http://www.w3.org/2000/svg" xmlns:svg="http://www.w3.org/2000/svg" enable-background="new 0 0 716 538" version="1.0" xml:space="preserve">
 <title>citroen</title>
 <style type="text/css">.st0{fill:#14120E;}</style>
 <g class="layer">
  <title>Layer 1</title>
  <g id="svg_1">
   <path class="st0" d="m398.93,424.49c-5.24,-0.03 -10.49,0.02 -15.72,-0.05c-1.01,-0.01 -2.12,-0.94 -2.5,-1.81c-0.84,-1.98 0.2,-4.71 2.5,-4.79c5.38,-0.18 10.83,-0.13 16.22,0.03c1.18,0.03 2.4,1.64 2.47,2.8c0.09,1.48 -0.45,3.03 -1.97,3.6c-0.22,0.09 -0.74,0.22 -0.98,0.22" id="svg_2"/>
   <path class="st0" d="m248.03,367.63c-9.86,-0.33 -19.56,-1.79 -29,-4.61c-18.14,-5.42 -34.75,-15.34 -48.66,-28.04c-7.39,-6.74 -14.01,-14.2 -19.96,-22.21c-15.75,-21.18 -26.16,-45.92 -31.7,-71.6c-4.77,-22.08 -5.57,-44.77 -3.28,-67.19c2.75,-26.72 11.18,-53.3 24.74,-76.51c5.27,-9.04 11.33,-17.62 18.23,-25.5c12.77,-14.6 28.2,-26.77 45.9,-34.81c8.91,-4.05 18.36,-6.93 28.01,-8.6c16.82,-2.89 34.31,-1.74 50.63,3.15c17.89,5.37 34.4,15.16 48.16,27.72c14.8,13.51 26.92,29.92 35.86,47.85c2.56,5.13 4.85,10.37 6.97,15.69c8,20.07 12.75,43.64 13.54,65.23c0.6,16.43 -0.42,32.9 -3.59,49.04c-3.16,16.09 -8.22,31.74 -15.19,46.59c-10.67,22.74 -26.12,42.91 -45.94,58.4c-10.85,8.47 -23.3,15.35 -36.37,19.67c-8.48,2.79 -17.19,4.45 -26.05,5.37c-4.1,0.39 -8.21,0.47 -12.31,0.36m2.85,-265.67c40.02,29.77 80,59.58 120.04,89.34c0.49,0.37 0.56,-0.04 0.5,-0.65c-0.24,-2.6 -0.31,-5.23 -0.48,-7.85c-1.44,-20.33 -6.1,-40.63 -14.24,-59.34c-3.46,-7.96 -7.47,-15.74 -12.15,-23.05c-4.92,-7.68 -10.52,-14.85 -16.66,-21.58c-6.3,-6.91 -13.61,-13.01 -21.36,-18.24c-6.41,-4.33 -13.41,-8.05 -20.64,-10.76c-6.67,-2.5 -13.58,-4.48 -20.64,-5.53c-3.74,-0.55 -8.05,-1.05 -11.8,-1.09c-8.41,-0.1 -16.91,0.62 -25.06,2.71c-15.33,3.91 -29.49,11.12 -41.78,21.12c-9.88,8.04 -18.46,17.56 -25.77,27.99c-11.28,16.09 -19.33,34.48 -24.28,53.46c-3.48,13.33 -5.39,26.95 -6.05,40.71c-0.04,0.81 0,1.72 0.04,2.51l120.33,-89.75zm-8.25,249.11c5.55,0.44 11.13,0.49 16.72,-0.01c18.4,-1.75 35.95,-8.77 50.88,-19.66c16.46,-12.02 29.41,-27.89 39.29,-45.62l-98.62,-73.19c-2.41,1.81 -4.85,3.58 -7.27,5.37c-28.01,20.8 -55.97,41.68 -84.05,62.39c-2.45,1.8 -4.86,3.64 -7.28,5.48c8.77,15.78 20.16,30.39 34.3,41.75c11.98,9.62 25.84,17.14 40.8,20.89c5.01,1.27 10.06,2.13 15.23,2.6m118.95,-95.46c0.23,0.17 0.47,0.35 0.71,0.53c1.55,-4.39 2.69,-8.97 3.72,-13.51c0.99,-4.4 1.66,-8.84 2.37,-13.3l-117.52,-87.27c-38.4,28.64 -76.84,57.24 -115.38,85.68c-0.67,0.5 -1.33,1.02 -2,1.52c1.12,8.83 3.01,17.65 5.77,26.13c0.07,0.24 0.26,0.45 0.39,0.67l111.23,-82.93c36.91,27.47 73.86,54.91 110.71,82.48" id="svg_3"/>
   <path class="st0" d="m98.88,475.75l-0.03,-45.99l10.31,0.01l-0.01,45.6c-0.24,0.13 -0.44,0.38 -0.71,0.39c-3.18,0.11 -6.37,-0.02 -9.56,-0.01" id="svg_4"/>
   <path class="st0" d="m372.88,424.49c-5.25,-0.03 -10.49,0.12 -15.72,-0.02c-0.65,-0.02 -1.72,-0.86 -2.06,-1.34c-0.92,-1.29 -0.85,-2.95 0.1,-4.15c0.5,-0.63 1.16,-1.11 1.96,-1.12c5.55,-0.12 11.16,-0.3 16.71,0.08c1.15,0.08 2.17,2.17 2.11,3.24c-0.08,1.62 -1.35,3.31 -3.1,3.31" id="svg_5"/>
   <path class="st0" d="m480.03,475.89c-3.16,-0.01 -6.3,-0.01 -9.45,0.01c-0.06,-0.27 -0.18,-0.53 -0.18,-0.8c0,-7.85 0.03,-15.7 0.02,-23.54c-0.02,-7.5 -5.54,-12.7 -13.01,-12.7c-9,0 -18.02,0.09 -27.01,-0.09l0.02,37.14l-10.29,-0.04c0.01,-14.97 0.03,-29.94 0,-44.91c0,-0.34 0.04,-0.68 0.07,-1.02c13.22,0.11 26.44,-0.18 39.67,0.1c7.21,0.15 14.87,3.67 18.29,10.24c1.52,2.92 2.5,6.06 2.6,9.32c0.24,8.32 -0.05,16.68 0.01,25.01c0,0.44 -0.05,0.85 -0.12,1.28c-0.19,0 -0.4,0 -0.61,0" id="svg_6"/>
   <path class="st0" d="m405.32,475.89c-18.3,-0.03 -36.6,-0.01 -54.9,-0.03l0,-45.74c0.27,-0.05 0.54,-0.16 0.83,-0.16c18.27,0.12 36.55,0.08 54.82,0l0.03,8.9l-45.35,-0.03l0.03,9.61l39.69,0.01c-0.01,2.51 0,5.01 0.01,7.52c0,0.29 -0.12,0.58 -0.22,0.86c-0.28,0.02 -0.56,0.05 -0.83,0.05c-12.91,0.09 -25.83,-0.02 -38.72,0.01l-0.01,10.1c0.29,0.01 0.59,0.04 0.89,0.04c14.79,0.1 29.59,0.01 44.4,-0.01c0.18,2.94 0.22,5.92 0.05,8.88c-0.24,-0.01 -0.47,-0.01 -0.71,-0.01" id="svg_7"/>
   <path class="st0" d="m42.09,475.26c-7.55,-0.69 -14.6,-4.82 -18.39,-11.43c-3.21,-5.6 -3.31,-12.11 -1.58,-18.15c2.36,-8.26 10.35,-13.69 18.5,-15.05c3.91,-0.65 7.85,-0.54 11.8,-0.63c9.93,-0.2 19.89,0.02 29.83,0l-0.03,8.69c-10.59,-0.01 -21.18,-0.06 -31.77,-0.01c-2.47,0.01 -4.96,0.17 -7.38,0.56c-5.09,0.82 -9.67,4.83 -10.84,9.88c-1.68,7.23 1.33,13.83 8.39,16.47c1.86,0.69 3.92,1.01 5.89,1.07c11.92,0.33 23.86,0.11 35.79,0.12l-0.03,8.81c-3.57,-0.06 -7.14,-0.02 -10.69,0.08c-9.48,0.26 -20.03,0.35 -29.48,-0.41" id="svg_8"/>
   <path class="st0" d="m146.44,475.74l0.01,-37.18l-25.73,0.01c-0.07,-0.41 -0.13,-0.82 -0.12,-1.23c0.01,-2.53 0.03,-5.09 0.14,-7.59l61.77,0.07l-0.12,8.75l-25.53,0c-0.06,0.25 -0.18,0.48 -0.18,0.74c0,11.76 0,23.54 0.04,35.31c0,0.42 -0.1,0.72 -0.22,1.11l-10.07,0.01z" id="svg_9"/>
   <path class="st0" d="m257.86,475.76c-4.58,-0.03 -9.24,0.19 -13.76,-0.18c-0.18,-0.02 -0.35,-0.14 -0.49,-0.24c-10.03,-7.21 -20.01,-14.49 -29.99,-21.77c-0.31,-0.22 -0.59,-0.47 -0.87,-0.72l-0.06,-2.52c0.31,-0.03 0.62,-0.11 0.93,-0.11c8.35,0 16.72,0.03 25.06,0.02c2.15,0 4.81,-0.32 6.22,-2.11c1.36,-1.74 1.35,-4.41 0.64,-6.38c-0.69,-1.93 -2.99,-2.91 -4.9,-2.91c-11.96,0.03 -23.9,0.03 -35.85,0c-0.24,0.2 -0.59,0.57 -0.59,0.95c0.05,12 -0.03,24.01 0.04,36.01c-0.32,0.03 -0.64,0.08 -0.95,0.09c-3.05,0.04 -6.09,-0.01 -9.15,0.01c-0.05,-0.27 -0.16,-0.52 -0.16,-0.79c0,-14.71 0.05,-29.43 -0.06,-44.14c-0.01,-0.31 0.08,-0.61 0.19,-0.89c0.27,-0.02 0.55,-0.08 0.82,-0.08c15.39,0 30.8,-0.01 46.2,0.01c3.44,0 6.91,1 9.83,2.74c2.93,1.74 4.83,4.76 5.38,8.03c0.87,5.08 0.31,10.37 -3.91,13.69c-4.37,3.43 -14.3,3.41 -19.66,3.09c8.62,5.72 17.06,11.7 25.61,17.52l0.05,0.68l-0.58,0z" id="svg_10"/>
   <path class="st0" d="m297.68,476.99c-6.34,0.01 -12.69,-0.91 -18.19,-4.21c-4.43,-2.66 -7.79,-7.04 -9.37,-11.89c-1.91,-5.86 -1.51,-12.53 0.93,-18.15c2.8,-6.42 9.09,-11.16 15.81,-12.77c2.71,-0.65 5.57,-0.96 8.36,-1.04c3.59,-0.12 7.21,-0.13 10.81,-0.12c7.05,0.01 14.18,0.48 20.38,4.13c5.31,3.11 9.36,8.63 10.51,14.71c1.34,7.12 -0.07,14.32 -4.5,20.11c-4.1,5.35 -10.99,8.38 -17.55,8.89c-5.74,0.37 -11.46,0.33 -17.21,0.34m-6.15,-9.73c4.93,0.74 10.95,0.67 15.98,0.51c2.46,-0.08 4.93,-0.13 7.38,-0.54c3.72,-0.63 7.64,-2.94 9.47,-6.35c2.25,-4.2 2.95,-9.72 1.04,-14.22c-1.69,-4.01 -4.87,-6.75 -9.05,-8.01c-2.89,-0.87 -7.76,-1.07 -10.81,-1.06c-4.72,0.01 -9.6,-0.18 -14.25,0.69c-2.48,0.46 -5.03,1.67 -6.88,3.42c-3.03,2.85 -4.43,6.68 -4.51,10.85c-0.15,7.19 4.06,13.58 11.64,14.71" id="svg_11"/>
  </g>
 </g>
</svg>