<?xml version="1.0"?>
<svg width="20" height="20" xmlns="http://www.w3.org/2000/svg" xmlns:svg="http://www.w3.org/2000/svg" version="1.1" xml:space="preserve">
 <title>honda-logo</title>
 <g class="layer">
  <title>Layer 1</title>
  <g id="svg_1">
   <path d="m13.84,4.57c-0.37,1.65 -0.52,2.4 -0.85,3.58s-0.52,2.18 -0.92,2.72c-0.29,0.39 -0.77,0.64 -1.29,0.68c-0.48,0.04 -0.99,0.04 -1.47,0c-0.52,-0.04 -0.99,-0.29 -1.29,-0.68c-0.41,-0.5 -0.63,-1.57 -0.92,-2.72s-0.48,-1.93 -0.85,-3.58l-0.55,0.04c-0.22,0 -0.41,0.04 -0.59,0.07c0,0 0.22,3.36 0.33,4.79c0.11,1.5 0.29,4.01 0.44,5.94c0,0 0.33,0.04 0.85,0.07s0.81,0.04 0.81,0.04c0.22,-0.86 0.52,-2 0.81,-2.5c0.18,-0.29 0.52,-0.46 0.88,-0.46c0.26,-0.04 0.52,-0.04 0.81,-0.04l0,0c0.26,0 0.52,0 0.81,0.04c0.37,0 0.7,0.18 0.88,0.46c0.33,0.5 0.59,1.65 0.81,2.5c0,0 0.26,0 0.81,-0.04s0.85,-0.07 0.85,-0.07c0.18,-1.9 0.37,-4.44 0.44,-5.94c0.11,-1.43 0.33,-4.79 0.33,-4.79c-0.18,-0.04 -0.37,-0.04 -0.59,-0.07l-0.55,-0.04z" id="svg_2"/>
   <path d="m18.19,6.58c-0.22,-2.15 -1.69,-2.58 -2.98,-2.79c-0.85,-0.11 -1.69,-0.18 -2.54,-0.21c-0.66,-0.04 -2.17,-0.07 -2.61,-0.07s-1.99,0.04 -2.61,0.07c-0.88,0 -1.73,0.07 -2.58,0.21c-1.29,0.21 -2.76,0.68 -2.98,2.79c-0.07,0.72 -0.07,1.43 -0.07,2.15c0,0.97 0.07,1.93 0.22,2.9c0.07,0.82 0.26,1.61 0.48,2.43c0.33,0.93 0.63,1.22 0.96,1.47c0.59,0.39 1.22,0.61 1.92,0.72c3.09,0.32 6.19,0.32 9.28,0c0.7,-0.11 1.33,-0.32 1.92,-0.72c0.37,-0.29 0.66,-0.54 0.96,-1.47c0.22,-0.79 0.41,-1.61 0.48,-2.43c0.11,-0.97 0.18,-1.93 0.22,-2.9c0.04,-0.72 0,-1.43 -0.04,-2.15zm-0.81,3.58c-0.04,1.18 -0.22,2.32 -0.52,3.47c-0.11,0.54 -0.41,1 -0.81,1.39c-0.55,0.43 -1.22,0.68 -1.88,0.72c-2.76,0.29 -5.52,0.29 -8.29,0c-0.7,-0.04 -1.33,-0.29 -1.88,-0.72c-0.41,-0.39 -0.66,-0.86 -0.81,-1.39c-0.29,-1.14 -0.44,-2.29 -0.52,-3.47c-0.07,-1.18 -0.07,-2.4 0.04,-3.58c0.22,-1.36 0.88,-2 2.36,-2.25c0.81,-0.14 1.66,-0.21 2.47,-0.25c0.7,-0.04 1.84,-0.07 2.5,-0.07s1.8,0 2.5,0.07c0.81,0.04 1.66,0.11 2.47,0.25c1.47,0.25 2.14,0.93 2.32,2.25c0.07,1.18 0.11,2.4 0.04,3.58l0,0z" id="svg_3"/>
  </g>
 </g>
</svg>