<?xml version="1.0"?>
<svg width="20" height="20" xmlns="http://www.w3.org/2000/svg" xmlns:svg="http://www.w3.org/2000/svg" version="1.1" xml:space="preserve">
 <title>honda-logo</title>
 <g class="layer">
  <title>Layer 1</title>
  <g id="svg_1">
   <path d="m14.42,2.75c-0.43,2.22 -0.6,3.23 -0.99,4.82s-0.6,2.94 -1.07,3.66c-0.34,0.53 -0.9,0.87 -1.5,0.92c-0.56,0.05 -1.16,0.05 -1.72,0c-0.6,-0.05 -1.16,-0.39 -1.5,-0.92c-0.47,-0.67 -0.73,-2.12 -1.07,-3.66s-0.56,-2.6 -0.99,-4.82l-0.64,0.05c-0.26,0 -0.47,0.05 -0.69,0.1c0,0 0.26,4.53 0.39,6.46c0.13,2.02 0.34,5.4 0.51,8c0,0 0.39,0.05 0.99,0.1s0.94,0.05 0.94,0.05c0.26,-1.16 0.6,-2.7 0.94,-3.37c0.21,-0.39 0.6,-0.63 1.03,-0.63c0.3,-0.05 0.6,-0.05 0.94,-0.05l0,0c0.3,0 0.6,0 0.94,0.05c0.43,0 0.81,0.24 1.03,0.63c0.39,0.67 0.69,2.22 0.94,3.37c0,0 0.3,0 0.94,-0.05s0.99,-0.1 0.99,-0.1c0.21,-2.55 0.43,-5.97 0.51,-8c0.13,-1.93 0.39,-6.46 0.39,-6.46c-0.21,-0.05 -0.43,-0.05 -0.69,-0.1l-0.64,-0.05z" id="svg_2"/>
   <path d="m19.48,5.44c-0.26,-2.89 -1.97,-3.47 -3.47,-3.76c-0.99,-0.14 -1.97,-0.24 -2.96,-0.29c-0.77,-0.05 -2.53,-0.1 -3.04,-0.1s-2.32,0.05 -3.04,0.1c-1.03,0 -2.02,0.1 -3,0.29c-1.5,0.29 -3.22,0.92 -3.47,3.76c-0.09,0.96 -0.09,1.93 -0.09,2.89c0,1.3 0.09,2.6 0.26,3.9c0.09,1.11 0.3,2.17 0.56,3.28c0.39,1.25 0.73,1.64 1.11,1.98c0.69,0.53 1.41,0.82 2.23,0.96c3.6,0.43 7.2,0.43 10.81,0c0.81,-0.14 1.54,-0.43 2.23,-0.96c0.43,-0.39 0.77,-0.72 1.11,-1.98c0.26,-1.06 0.47,-2.17 0.56,-3.28c0.13,-1.3 0.21,-2.6 0.26,-3.9c0.04,-0.96 0,-1.93 -0.04,-2.89zm-0.94,4.82c-0.04,1.59 -0.26,3.13 -0.6,4.67c-0.13,0.72 -0.47,1.35 -0.94,1.88c-0.64,0.58 -1.41,0.92 -2.19,0.96c-3.22,0.39 -6.43,0.39 -9.65,0c-0.81,-0.05 -1.54,-0.39 -2.19,-0.96c-0.47,-0.53 -0.77,-1.16 -0.94,-1.88c-0.34,-1.54 -0.51,-3.08 -0.6,-4.67c-0.09,-1.59 -0.09,-3.23 0.04,-4.82c0.26,-1.83 1.03,-2.7 2.74,-3.03c0.94,-0.19 1.93,-0.29 2.87,-0.34c0.81,-0.05 2.14,-0.1 2.92,-0.1s2.1,0 2.92,0.1c0.94,0.05 1.93,0.14 2.87,0.34c1.72,0.34 2.49,1.25 2.7,3.03c0.09,1.59 0.13,3.23 0.04,4.82l0,0z" id="svg_3"/>
  </g>
 </g>
</svg>