<svg xmlns="http://www.w3.org/2000/svg" xmlns:xlink="http://www.w3.org/1999/xlink" version="1.1" width="256" height="256" viewBox="0 0 256 256" xml:space="preserve">

<defs>
</defs>
<g style="stroke: none; stroke-width: 0; stroke-dasharray: none; stroke-linecap: butt; stroke-linejoin: miter; stroke-miterlimit: 10; fill: none; fill-rule: nonzero; opacity: 1;" transform="translate(1.4065934065934016 1.4065934065934016) scale(2.81 2.81)" >
	<polygon points="54.7,40.91 50.45,35.81 36.4,30.96 24.16,31.57 20.29,40.05 40.4,46.59 " style="stroke: none; stroke-width: 1; stroke-dasharray: none; stroke-linecap: butt; stroke-linejoin: miter; stroke-miterlimit: 10; fill: rgb(32,36,30); fill-rule: nonzero; opacity: 1;" transform="  matrix(1 0 0 1 0 0) "/>
	<path d="M 89.687 53.003 c -2.643 -6.452 -8.583 -10.998 -15.484 -11.861 l -18.728 -2.59 c -3.056 -2.644 -6.838 -5.031 -11.266 -7.093 c -2.633 -1.226 -5.591 -1.874 -8.553 -1.874 h -6.54 c -0.257 0 -0.512 0.025 -0.768 0.032 c -0.231 -0.044 -0.468 -0.035 -0.694 0.029 c -5.397 0.3 -10.65 2.23 -14.93 5.548 l -4.307 3.339 L 3.82 39.046 c -0.642 0.072 -1.166 0.546 -1.301 1.178 l -2.43 11.404 c -0.425 1.998 0.702 4.029 2.621 4.727 l 5.187 1.884 l 19.582 1.226 h 35.641 l 19.26 -0.351 l 3.925 -0.426 c 1.305 -0.142 2.438 -0.87 3.11 -1.998 C 90.085 55.561 90.185 54.218 89.687 53.003 z M 23.653 38.33 l 5.074 -5.729 c 0.13 -0.002 0.258 -0.016 0.388 -0.016 h 6.54 c 2.528 0 5.047 0.551 7.287 1.594 c 3.427 1.596 6.429 3.388 8.971 5.34 c -2.201 0.731 -4.532 1.087 -6.819 1.018 l -15.587 -0.76 c -0.664 -0.02 -3.013 -0.093 -5.348 -0.23 c -0.414 -0.024 -0.582 -0.323 -0.635 -0.45 C 23.472 38.969 23.378 38.64 23.653 38.33 z" style="stroke: none; stroke-width: 1; stroke-dasharray: none; stroke-linecap: butt; stroke-linejoin: miter; stroke-miterlimit: 10; fill: rgb(219,51,40); fill-rule: nonzero; opacity: 1;" transform=" matrix(1 0 0 1 0 0) " stroke-linecap="round" />
	<path d="M 88.907 51.354 c -0.672 0.742 -1.581 1.222 -2.603 1.333 l -3.925 0.426 l -19.26 0.351 H 27.478 L 7.897 52.239 L 2.71 50.355 c -0.852 -0.309 -1.534 -0.89 -2.007 -1.605 l -0.613 2.879 c -0.425 1.998 0.702 4.029 2.621 4.727 l 5.187 1.884 l 19.582 1.226 h 35.641 l 19.26 -0.351 l 3.925 -0.426 c 1.305 -0.142 2.438 -0.87 3.11 -1.998 c 0.671 -1.128 0.771 -2.472 0.272 -3.686 C 89.455 52.436 89.189 51.89 88.907 51.354 z" style="stroke: none; stroke-width: 1; stroke-dasharray: none; stroke-linecap: butt; stroke-linejoin: miter; stroke-miterlimit: 10; fill: rgb(191,37,37); fill-rule: nonzero; opacity: 1;" transform=" matrix(1 0 0 1 0 0) " stroke-linecap="round" />
	<path d="M 74.374 64.309 c -4.685 0 -8.496 -3.812 -8.496 -8.497 c 0 -4.685 3.812 -8.496 8.496 -8.496 s 8.496 3.812 8.496 8.496 C 82.87 60.498 79.059 64.309 74.374 64.309 z" style="stroke: none; stroke-width: 1; stroke-dasharray: none; stroke-linecap: butt; stroke-linejoin: miter; stroke-miterlimit: 10; fill: rgb(32,36,30); fill-rule: nonzero; opacity: 1;" transform=" matrix(1 0 0 1 0 0) " stroke-linecap="round" />
	<path d="M 18.011 64.309 c -4.685 0 -8.496 -3.812 -8.496 -8.497 c 0 -4.685 3.812 -8.496 8.496 -8.496 c 4.685 0 8.497 3.812 8.497 8.496 C 26.507 60.498 22.696 64.309 18.011 64.309 z" style="stroke: none; stroke-width: 1; stroke-dasharray: none; stroke-linecap: butt; stroke-linejoin: miter; stroke-miterlimit: 10; fill: rgb(32,36,30); fill-rule: nonzero; opacity: 1;" transform=" matrix(1 0 0 1 0 0) " stroke-linecap="round" />
	<path d="M 18.011 60.313 c -2.481 0 -4.5 -2.019 -4.5 -4.5 c 0 -2.481 2.019 -4.5 4.5 -4.5 c 2.481 0 4.5 2.019 4.5 4.5 C 22.511 58.294 20.492 60.313 18.011 60.313 z" style="stroke: none; stroke-width: 1; stroke-dasharray: none; stroke-linecap: butt; stroke-linejoin: miter; stroke-miterlimit: 10; fill: rgb(80,83,78); fill-rule: nonzero; opacity: 1;" transform=" matrix(1 0 0 1 0 0) " stroke-linecap="round" />
	<path d="M 74.374 60.313 c -2.481 0 -4.5 -2.019 -4.5 -4.501 c 0 -2.481 2.019 -4.5 4.5 -4.5 s 4.5 2.019 4.5 4.5 C 78.874 58.294 76.855 60.313 74.374 60.313 z" style="stroke: none; stroke-width: 1; stroke-dasharray: none; stroke-linecap: butt; stroke-linejoin: miter; stroke-miterlimit: 10; fill: rgb(80,83,78); fill-rule: nonzero; opacity: 1;" transform=" matrix(1 0 0 1 0 0) " stroke-linecap="round" />
	<path d="M 86.715 48.053 c -1.329 -1.614 -2.907 -2.998 -4.669 -4.103 h -5.823 c 2.132 2.597 5.315 4.103 8.676 4.103 H 86.715 z" style="stroke: none; stroke-width: 1; stroke-dasharray: none; stroke-linecap: butt; stroke-linejoin: miter; stroke-miterlimit: 10; fill: rgb(206,214,206); fill-rule: nonzero; opacity: 1;" transform=" matrix(1 0 0 1 0 0) " stroke-linecap="round" />
	<path d="M 4.268 40.913 l -1.896 0.003 l -1.063 4.988 H 4.23 c 0.883 0 1.599 -0.716 1.599 -1.599 v -1.796 C 5.83 41.638 5.133 40.934 4.268 40.913 z" style="stroke: none; stroke-width: 1; stroke-dasharray: none; stroke-linecap: butt; stroke-linejoin: miter; stroke-miterlimit: 10; fill: rgb(191,37,37); fill-rule: nonzero; opacity: 1;" transform=" matrix(1 0 0 1 0 0) " stroke-linecap="round" />
</g>
</svg>