<?xml version="1.0"?>
<svg width="350" height="150" xmlns="http://www.w3.org/2000/svg" xmlns:svg="http://www.w3.org/2000/svg" enable-background="new 0 0 800 800" version="1.1" xml:space="preserve">
 <!-- Created with SVG-edit - https://github.com/SVG-Edit/svgedit-->
 <title>auto4</title>
 <g class="layer">
  <title>Layer 1</title>
  <g id="svg_426">
   <polygon fill="#383838" id="svg_427" points="306.19598388671875,127.42198511481831 39.748992919921875,127.42198511481831 39.748992919921875,66.92096097361002 279.7440185546875,66.92096097361002 "/>
   <path d="m241.79,51.97c0,0 -50.34,-34 -59.73,-36.53l0.69,3.41c0,0 39.59,34.94 44.15,36.07c4.55,1.13 14.89,-2.95 14.89,-2.95z" fill="#D3F2F0" id="svg_428"/>
   <path d="m313.66,77.63c-2.84,-4.91 -7.22,-6.54 -12.25,-8.44c-5.03,-1.92 -59.62,-17.21 -59.62,-17.21c-4.59,0.5 -14.77,0.25 -17.97,-2.48c-3.19,-2.74 -25.42,-23.17 -31.03,-27.75c-10.15,-8.31 -21.5,-10.16 -40.31,-10.16c-49.17,0 -85.93,31.45 -85.93,31.45s-26.74,11.18 -28.94,12.43c-2.2,1.23 -3.76,2.74 -4.63,8.41c-0.35,2.27 -5.82,48.37 -5.82,48.37l2.48,19.08l23.06,0c-2.3,-4.84 -3.62,-10.47 -3.62,-16.5c0,-17.94 11.68,-32.47 26.08,-32.47c14.41,0 26.08,14.53 26.08,32.47c0,6.03 -1.32,11.66 -3.61,16.5l33.1,0l112.83,0c-2.29,-4.84 -3.61,-10.47 -3.61,-16.5c0,-17.94 11.68,-32.47 26.08,-32.47c14.4,0 26.08,14.53 26.08,32.47c0,6.03 -1.32,11.66 -3.62,16.5l11.17,0l24.73,-25.35c0,0 -7.88,-23.44 -10.73,-28.35z" fill="#F6D636" id="svg_429"/>
   <path d="m27.16,112.24l2.48,19.08l23.06,0c-2.29,-4.84 -3.62,-10.47 -3.62,-16.49c0,-17.95 11.68,-32.48 26.08,-32.48c14.41,0 26.08,14.53 26.08,32.48c0,6.02 -1.32,11.65 -3.61,16.49l33.1,0l112.83,0c-2.29,-4.84 -3.61,-10.47 -3.61,-16.49c0,-17.95 11.68,-32.48 26.08,-32.48c14.4,0 26.08,14.53 26.08,32.48c0,6.02 -1.32,11.65 -3.62,16.49l11.17,0l24.73,-25.35c0,0 -6.59,-19.62 -9.89,-26.7l-283.41,0c-1.7,14.17 -3.93,32.97 -3.93,32.97z" fill="#F6CD00" id="svg_430"/>
   <path d="m49.77,114.82c0,-5.11 0.98,-9.94 2.71,-14.25c-9.64,0 -19.29,0 -21.29,0c-4.25,0 -5.21,0.24 -5.99,2.59c-0.77,2.34 -2.94,15.64 -3.09,18.99c-0.22,4.92 3.29,9.15 6.76,9.15l24.61,0c-2.36,-4.83 -3.71,-10.46 -3.71,-16.49z" fill="#302F2B" id="svg_431"/>
   <path d="m326.17,103.16c-0.76,-2.35 -1.71,-2.59 -5.88,-2.59c-2.7,0 -19.58,0 -31.13,0c1.7,4.31 2.66,9.14 2.66,14.26c0,6.02 -1.33,11.65 -3.64,16.49l34.39,0c3.41,0 6.85,-4.23 6.64,-9.17c-0.15,-3.35 -2.28,-16.65 -3.04,-18.99z" fill="#302F2B" id="svg_432"/>
   <path d="m240.72,120.47l-140.25,0c-0.01,0.06 -0.03,0.14 -0.04,0.2c-0.12,0.83 -0.26,1.66 -0.44,2.47c-0.01,0.04 -0.01,0.07 -0.02,0.11c-0.19,0.87 -0.41,1.73 -0.65,2.58c-0.03,0.1 -0.06,0.19 -0.09,0.29c-0.21,0.7 -0.44,1.38 -0.68,2.04c-0.08,0.21 -0.15,0.41 -0.23,0.61c-0.23,0.6 -0.48,1.2 -0.74,1.77c-0.07,0.17 -0.14,0.34 -0.22,0.5c-0.04,0.1 -0.08,0.19 -0.12,0.29l33.28,0l113.43,0c-1.56,-3.29 -2.67,-6.95 -3.23,-10.85z" fill="#302F2B" id="svg_433"/>
   <path d="m322.03,109.61c0,1.93 -1.26,3.5 -2.81,3.5l-9.07,0c-1.55,0 -2.81,-1.57 -2.81,-3.5l0,0c0,-1.93 1.26,-3.5 2.81,-3.5l9.07,0c1.55,0 2.81,1.57 2.81,3.5l0,0z" fill="#FFFAE0" id="svg_434"/>
   <path d="m321.32,97.08c-2.17,-6.15 -5,-13.89 -6.82,-17.81c-6.73,0 -18.87,0 -20.69,0c-2.53,0 -3.38,1.05 -2.32,3.15c1.06,2.1 2.8,5.19 3.63,6.74c0.83,1.56 3.15,4.04 7.63,5.17c3.32,0.85 13.51,2.14 18.57,2.75z" fill="#FFFAE0" id="svg_435"/>
   <path d="m299.03,79.27c-2.58,0 -4.56,0 -5.22,0c-2.53,0 -3.38,1.05 -2.32,3.15c1.06,2.1 2.8,5.19 3.63,6.75c0.83,1.54 3.15,4.02 7.63,5.16c0.61,0.15 1.45,0.32 2.45,0.5c-1.66,-4.32 -4.22,-10.9 -6.17,-15.56z" fill="#FF8717" id="svg_436"/>
   <path d="m35.65,81.44c5.05,0 9.15,-5.11 9.15,-11.4c0,-6.3 -4.1,-11.41 -9.15,-11.41l-1.2,0c-0.61,1.21 -1.1,2.85 -1.47,5.23c-0.14,0.9 -1.07,8.58 -2.15,17.57l4.82,0z" fill="#FF0A0A" id="svg_437"/>
   <path d="m31.92,72.37c-0.32,2.68 -0.69,5.78 -1.09,9.07l4.82,0c4.41,0 8.09,-3.89 8.96,-9.07l-12.69,0z" fill="#FF8717" id="svg_438"/>
   <path d="m90.92,39.53c0,0 -1.28,10.6 9.64,13.71l43.81,0l-2.11,-34.1c-19.21,1.77 -38.67,11.38 -51.34,20.39zm98.04,-11.92c-9.01,-8.76 -24.06,-8.76 -40.59,-8.76c-0.47,0 -0.94,0.02 -1.41,0.04l3.32,34.35l65.82,0c0.01,0 -21.75,-20.4 -27.14,-25.63z" fill="#D3F2F0" id="svg_439"/>
   <g id="svg_440" opacity="0.6">
    <path d="m90.92,39.53c0,0 -0.09,0.78 -0.01,2.01l5.55,-5.69c-1.96,1.22 -3.82,2.45 -5.54,3.69z" fill="#FFFFFF" id="svg_441"/>
    <path d="m158.33,18.94l-10.34,10.59l1.71,17.67l25.8,-26.44c-5.16,-1.25 -10.98,-1.68 -17.17,-1.82z" fill="#FFFFFF" id="svg_442"/>
    <path d="m137.96,19.68c-1.42,0.21 -2.84,0.47 -4.25,0.76l-32.02,32.81l3.51,0l32.76,-33.57z" fill="#FFFFFF" id="svg_443"/>
    <path d="m114.52,26.46l-21.31,21.83c0.98,1.39 2.35,2.7 4.29,3.72l29.11,-29.83c-4.14,1.2 -8.19,2.64 -12.09,4.27z" fill="#FFFFFF" id="svg_444"/>
    <path d="m195.49,33.84c-1.54,-1.46 -2.93,-2.78 -4.11,-3.91l-22.75,23.32l7.92,0l18.94,-19.4z" fill="#FFFFFF" id="svg_445"/>
    <polygon fill="#FFFFFF" id="svg_446" points="144.34002685546875,52.687499483225224 143.21002197265625,34.43104714032245 124.85101318359375,53.24547720239309 143.79498291015625,53.24547720239309 "/>
    <path d="m212.08,49.47c-2.54,-2.38 -5.98,-5.62 -9.48,-8.92l-12.38,12.69l18.17,0l3.69,-3.77z" fill="#FFFFFF" id="svg_447"/>
    <path d="m187.5,26.33c-0.94,-0.76 -1.93,-1.44 -2.97,-2.06l-28.28,28.97l4.98,0l26.27,-26.92z" fill="#FFFFFF" id="svg_448"/>
   </g>
   <path d="m76.99,53.24l12.11,23.66c6.79,0 17.09,9.6 18.64,32.93c0.12,1.94 0.87,6.12 4.33,6.12c3.47,0 40.6,0 40.6,0l-5.2,-62.71" fill="none" id="svg_449" stroke="#DBB700" stroke-linecap="round" stroke-linejoin="round" stroke-miterlimit="10"/>
   <path d="m144.63,18.98" fill="none" id="svg_450" stroke="#1C1C1B" stroke-linecap="round" stroke-linejoin="round" stroke-miterlimit="10"/>
   <path d="m147.47,53.24" fill="none" id="svg_451" stroke="#1C1C1B" stroke-linecap="round" stroke-linejoin="round" stroke-miterlimit="10"/>
   <path d="m152.67,115.95c0,0 56.73,0 61.74,0c5.28,0 6.38,-2.37 6.38,-6.26c0,-3.9 0,-56.45 0,-56.45" fill="none" id="svg_452" stroke="#DBB700" stroke-linecap="round" stroke-linejoin="round" stroke-miterlimit="10"/>
   <g id="svg_453">
    <path d="m114.89,64.45c0,1.08 -0.7,1.96 -1.57,1.96l-10.05,0c-0.87,0 -1.58,-0.87 -1.58,-1.96l0,0c0,-1.08 0.71,-1.96 1.58,-1.96l10.05,0c0.87,0 1.57,0.87 1.57,1.96l0,0z" fill="#302F2B" id="svg_454"/>
    <path d="m173.36,64.45c0,1.08 -0.71,1.96 -1.57,1.96l-10.06,0c-0.87,0 -1.57,-0.87 -1.57,-1.96l0,0c0,-1.08 0.7,-1.96 1.57,-1.96l10.06,0c0.86,0 1.57,0.87 1.57,1.96l0,0z" fill="#302F2B" id="svg_455"/>
   </g>
   <path d="m214.59,43.59c-4.68,-0.95 -6.28,2.62 -6.88,7.27c-0.6,4.66 0.01,8.67 4.7,9.6c4.68,0.95 11.83,-2.86 12.26,-6.2c0.43,-3.33 -5.39,-9.74 -10.08,-10.67z" fill="#302F2B" id="svg_456"/>
   <path d="m146.96,18.89c-1.56,0.04 -3.13,0.11 -4.7,0.25l2.11,34.1l5.91,0l-3.32,-34.35zm-56.04,20.64c-7.62,5.41 -12.78,10.6 -13.93,13.71l23.57,0c-10.92,-3.11 -9.64,-13.71 -9.64,-13.71z" fill="#302F2B" id="svg_457"/>
   <g id="svg_459">
    <circle cx="75.38" cy="115.01" fill="#1A1A1A" id="svg_460" r="23.64"/>
    <circle cx="75.38" cy="115.01" fill="#4F4F4F" id="svg_461" r="14.42"/>
    <circle cx="75.38" cy="115.01" fill="#ABABAB" id="svg_462" r="12.13"/>
    <ellipse cx="905.46" cy="150.08" fill="#383838" id="svg_463" rx="9.2" ry="9.2" transform="matrix(0.2411 -1.20875 0.9705 0.300288 -288.579 1164.44)"/>
    <g id="svg_464">
     <g id="svg_465">
      <polygon fill="#ABABAB" id="svg_466" points="75.697998046875,117.59381563566706 75.38198852539062,117.7707148738574 75.06698608398438,117.59381563566706 72.8590087890625,126.96488624850474 75.38198852539062,127.14177754722925 77.90499877929688,126.96488624850474 "/>
      <polygon fill="#ABABAB" id="svg_467" points="75.06698608398438,112.41259962872675 75.38198852539062,112.23570833000224 75.697998046875,112.41259962872675 77.90499877929688,103.04024282242437 75.38198852539062,102.86334358423403 72.8590087890625,103.04024282242437 "/>
     </g>
     <g id="svg_468">
      <polygon fill="#ABABAB" id="svg_469" points="77.3280029296875,115.99962647297446 77.2869873046875,116.42806386763652 77.00299072265625,116.6733774828964 82.31698608398438,123.85617252327222 83.73800659179688,121.25305986111755 84.91500854492188,118.46818106821786 "/>
      <polygon fill="#ABABAB" id="svg_470" points="73.43701171875,114.00557405314714 73.47698974609375,113.57835139675728 73.760986328125,113.33174364856688 68.447998046875,106.15024274112159 67.02700805664062,108.75206920981157 65.85000610351562,111.53701945790374 "/>
     </g>
     <g id="svg_471">
      <polygon fill="#ABABAB" id="svg_472" points="73.43701171875,115.99962647297446 73.47698974609375,116.42806386763652 73.760986328125,116.6733774828964 68.447998046875,123.85617252327222 67.02700805664062,121.25305986111755 65.85000610351562,118.46818106821786 "/>
      <polygon fill="#ABABAB" id="svg_473" points="77.3280029296875,114.00557405314714 77.2869873046875,113.57835139675728 77.00299072265625,113.33174364856688 82.31698608398438,106.15024274112159 83.73800659179688,108.75206920981157 84.91500854492188,111.53701945790374 "/>
     </g>
    </g>
    <circle cx="75.38" cy="115.01" fill="#CCCCCC" id="svg_474" r="3.61"/>
    <path d="m77.13,115.01c0,1.2 -0.78,2.18 -1.75,2.18c-0.96,0 -1.74,-0.98 -1.74,-2.18c0,-1.21 0.78,-2.18 1.74,-2.18c0.97,0 1.75,0.97 1.75,2.18z" fill="#B0B0B0" id="svg_475"/>
   </g>
   <g id="svg_476">
    <circle cx="266.39" cy="115.01" fill="#1A1A1A" id="svg_477" r="23.64"/>
    <circle cx="266.39" cy="115.01" fill="#4F4F4F" id="svg_478" r="14.42"/>
    <circle cx="266.39" cy="115.01" fill="#ABABAB" id="svg_479" r="12.13"/>
    <ellipse cx="768.99" cy="-1.77" fill="#383838" id="svg_480" rx="9.2" ry="9.2" transform="matrix(0.7071 -0.880688 0.7071 0.880688 -276.117 793.812)"/>
    <g id="svg_481">
     <g id="svg_482">
      <polygon fill="#ABABAB" id="svg_483" points="266.70697021484375,117.59381563566706 266.39202880859375,117.7707148738574 266.0770263671875,117.59381563566706 263.8690185546875,126.96488624850474 266.39202880859375,127.14177754722925 268.91497802734375,126.96488624850474 "/>
      <polygon fill="#ABABAB" id="svg_484" points="266.0770263671875,112.41259962872675 266.39202880859375,112.23570833000224 266.70697021484375,112.41259962872675 268.91497802734375,103.04024282242437 266.39202880859375,102.86334358423403 263.8690185546875,103.04024282242437 "/>
     </g>
     <g id="svg_485">
      <polygon fill="#ABABAB" id="svg_486" points="268.3380126953125,115.99962647297446 268.2969970703125,116.42806386763652 268.01300048828125,116.6733774828964 273.3270263671875,123.85617252327222 274.74700927734375,121.25305986111755 275.92498779296875,118.46818106821786 "/>
      <polygon fill="#ABABAB" id="svg_487" points="264.447021484375,114.00557405314714 264.48699951171875,113.57835139675728 264.77099609375,113.33174364856688 259.45697021484375,106.15024274112159 258.0369873046875,108.75206920981157 256.8599853515625,111.53701945790374 "/>
     </g>
     <g id="svg_488">
      <polygon fill="#ABABAB" id="svg_489" points="264.447021484375,115.99962647297446 264.48699951171875,116.42806386763652 264.77099609375,116.6733774828964 259.45697021484375,123.85617252327222 258.0369873046875,121.25305986111755 256.8599853515625,118.46818106821786 "/>
      <polygon fill="#ABABAB" id="svg_490" points="268.3380126953125,114.00557405314714 268.2969970703125,113.57835139675728 268.01300048828125,113.33174364856688 273.3270263671875,106.15024274112159 274.74700927734375,108.75206920981157 275.92498779296875,111.53701945790374 "/>
     </g>
    </g>
    <path d="m270,115.01c0,2.48 -1.61,4.5 -3.61,4.5c-1.99,0 -3.61,-2.02 -3.61,-4.5c0,-2.49 1.62,-4.5 3.61,-4.5c2,0 3.61,2.01 3.61,4.5z" fill="#CCCCCC" id="svg_491"/>
    <path d="m268.14,115.01c0,1.2 -0.78,2.18 -1.75,2.18c-0.96,0 -1.74,-0.98 -1.74,-2.18c0,-1.21 0.78,-2.18 1.74,-2.18c0.97,0 1.75,0.97 1.75,2.18z" fill="#B0B0B0" id="svg_492"/>
   </g>
  </g>
 </g>
</svg>