<?xml version="1.0"?>
<svg width="350" height="150" xmlns="http://www.w3.org/2000/svg" xmlns:svg="http://www.w3.org/2000/svg" enable-background="new 0 0 800 800" version="1.1" xml:space="preserve">
 <!-- Created with SVG-edit - https://github.com/SVG-Edit/svgedit-->
 <title>auto4</title>
 <g class="layer">
  <title>Layer 1</title>
  <g id="svg_105">
   <g id="svg_107">
    <polygon fill="#404B52" id="svg_108" points="305.63323974609375,106.99967258192555 229.83335876464844,106.99967258192555 240.22315979003906,63.13979725751051 287.9642333984375,63.13979725751051 "/>
    <polygon fill="#404B52" id="svg_109" points="115.76948547363281,110.77647442430316 38.96351623535156,103.6353932441234 38.96351623535156,55.2496259634172 125.83361053466797,55.2496259634172 "/>
    <g id="svg_110">
     <path d="m78.59,14.41c0,0 -23.99,17.42 -30.04,26.65l0,6.24l15.02,0l18.35,-30.75l-3.33,-2.14z" fill="#D3F2F0" id="svg_111"/>
     <path d="m169.73,17.1c0,0 41.97,17.08 61.64,29.95l-0.96,6.01l-17.1,0l-44.62,-32.32l1.05,-3.64z" fill="#D3F2F0" id="svg_112"/>
     <path d="m304.36,60.66c-6.13,-2.59 -72.99,-13.61 -72.99,-13.61c-5,1.19 -6.49,1.59 -8.33,1.79c-1.83,0.19 -2.95,0.31 -7.99,-2.92c-2.45,-1.57 -41.26,-24.92 -43.08,-25.85c-1.82,-0.92 -1.73,-3.1 -2.84,-3.43c-13.43,-4 -52.42,-8.21 -90.55,-2.23c0,0 0.84,1.69 -0.67,3.46c-1.51,1.76 -17.57,19.29 -19.41,20.66c-1.85,1.39 -5.74,2.9 -9.96,2.52c0,0 -20.34,6.42 -22.61,15.36c0,0 -1.95,12.46 -2.06,20.89l14.83,29.7c0,0 2.17,-4.99 2.17,-7.84c0,-18.17 12.65,-32.88 28.27,-32.88s28.26,14.72 28.26,32.88c0,5.26 -1.07,10.47 -2.96,14.87c23.25,0.07 96.76,-0.16 150.68,0c-2.02,-4.52 -3.16,-9.43 -3.16,-14.87c0,-18.17 12.65,-32.88 28.27,-32.88c15.61,0 28.27,14.72 28.27,32.88c0,5.5 -1.17,10.69 -3.24,15.25c6,0.02 9.81,0.02 10.75,0.02c7.8,0 18.94,-18.14 18.94,-25.26c0,-7.13 -14.48,-25.92 -20.61,-28.52z" fill="#6D9C00" id="svg_113"/>
     <path d="m320.1,77.76c-3.02,-4.73 -6.97,-9.65 -10.44,-13.05c-0.13,0 -0.27,-0.01 -0.4,-0.01c-7.78,0 -14.08,2.91 -14.08,6.49c0,3.58 10.02,8.72 17.79,8.72c3.21,0 5.51,-0.88 7.14,-2.15z" fill="#DEDBCC" id="svg_114"/>
     <path d="m320.1,77.76c-3.02,-4.73 -6.97,-9.65 -10.44,-13.05c-0.13,0 -0.27,-0.01 -0.4,-0.01c-7.78,0 -14.08,2.91 -14.08,6.49c0,3.58 10.02,8.72 17.79,8.72c3.21,0 5.51,-0.88 7.14,-2.15z" fill="#DEDBCC" id="svg_115"/>
     <path d="m314.96,79.78c2.19,-0.29 3.88,-1.03 5.14,-2.01c-3.02,-4.73 -6.97,-9.65 -10.44,-13.05c-0.13,0 -0.27,-0.01 -0.4,-0.01c-1.56,0 -3.04,0.12 -4.44,0.34c3.39,3.96 7.15,9.41 10.14,14.74z" fill="#F5F2E1" id="svg_116"/>
     <path d="m31.51,70.33c2.52,0 3.39,-0.63 4.74,-2.42c1.34,-1.79 4.47,-6.89 5.57,-8.93c1.1,-2.04 0.1,-3.73 -2.85,-3.73c-2,0 -8.83,0 -13.03,0c0,0 -1.2,7.7 -1.77,15.08c2.66,0 5.93,0 7.34,0z" fill="#FF0A0A" id="svg_117"/>
     <g id="svg_118">
      <path d="m141.19,49.37l63.24,2.69c0,0 -21.64,-18.83 -25.12,-21.47c-3.47,-2.64 -11.19,-8.62 -13.76,-10.21c-2.5,-1.53 -16.05,-2.61 -30.26,-3.28l5.9,32.27z" fill="#D3F2F0" id="svg_119"/>
      <path d="m131.51,16.93c-14.88,-0.64 -29.49,-0.86 -31.93,-0.77c-3.36,0.12 -7.27,1.33 -10.78,6.65c-0.64,0.98 -5.8,9.46 -6.78,11.65c-0.97,2.2 -1.66,3.79 -1.66,5.63s0,2.99 0,6.68l57.05,2.42l-5.9,-32.27z" fill="#D3F2F0" id="svg_120"/>
     </g>
     <g id="svg_121" opacity="0.6">
      <path d="m135.56,18.55l1.42,-1.36c-0.56,-0.02 -1.12,-0.05 -1.69,-0.08l0.27,1.45z" fill="#FFFFFF" id="svg_122"/>
      <path d="m132.36,21.61l-0.85,-4.68c-0.1,0 -0.2,-0.01 -0.29,-0.01l-32.04,30.65l5.79,0.25l27.39,-26.21z" fill="#FFFFFF" id="svg_123"/>
      <path d="m124.67,16.67c-1.23,-0.05 -2.46,-0.08 -3.66,-0.12l-31.98,30.6l3.63,0.14l32.01,-30.63z" fill="#FFFFFF" id="svg_124"/>
      <path d="m104.43,16.16l-23.99,22.96c-0.04,0.33 -0.07,0.64 -0.07,0.98c0,1.85 0,2.99 0,6.68l5.89,0.25l31.94,-30.57c-5.5,-0.16 -10.34,-0.25 -13.76,-0.3z" fill="#FFFFFF" id="svg_125"/>
      <path d="m143.4,17.55c-0.83,-0.06 -1.67,-0.11 -2.52,-0.16l-4.71,4.51l0.39,2.18l6.84,-6.54z" fill="#FFFFFF" id="svg_126"/>
      <path d="m181.98,32.76c-1.2,-1.01 -2.14,-1.77 -2.67,-2.17c-0.19,-0.14 -0.4,-0.3 -0.62,-0.47l-20.85,19.95l5.79,0.25l18.35,-17.56z" fill="#FFFFFF" id="svg_127"/>
      <polygon fill="#FFFFFF" id="svg_128" points="133.3741912841797,27.137568174841363 132.97589111328125,24.956639515996358 108.90518188476562,47.98908852449313 111.46918487548828,48.09886425737386 "/>
      <path d="m175.55,27.72c-0.68,-0.52 -1.39,-1.06 -2.12,-1.62l-24.64,23.58l3.64,0.16l23.12,-22.12z" fill="#FFFFFF" id="svg_129"/>
      <path d="m194.82,43.72c-2.4,-2.06 -4.95,-4.27 -7.3,-6.27l-13.9,13.29l13.29,0.57l7.91,-7.59z" fill="#FFFFFF" id="svg_130"/>
      <path d="m165.55,20.38c-1.06,-0.65 -4.1,-1.22 -8.33,-1.7l-18.41,17.61l2.15,11.79l27.12,-25.96c-1.04,-0.75 -1.93,-1.36 -2.53,-1.74z" fill="#FFFFFF" id="svg_131"/>
      <polygon fill="#FFFFFF" id="svg_132" points="135.60939025878906,39.35464424039492 125.83361053466797,48.70925065238407 137.4120635986328,49.20260828253231 "/>
     </g>
     <g id="svg_133">
      <path d="m92.24,80.19c3.26,5.37 5.19,11.91 5.19,18.97c0,5.26 -1.08,10.47 -2.97,14.89c23.25,0.06 96.76,-0.17 150.68,0c-2.02,-4.54 -3.16,-9.45 -3.16,-14.89c0,-3.38 0.44,-6.63 1.24,-9.7l-150.98,-9.28z" fill="#689400" id="svg_134"/>
      <path d="m311.54,93.66l-13.55,-0.83c0.34,2.05 0.53,4.16 0.53,6.33c0,5.5 -1.17,10.69 -3.24,15.25c6.01,0.02 9.81,0.04 10.75,0.04c3.09,0 6.71,-2.86 9.95,-6.76l-4.44,-14.03z" fill="#689400" id="svg_135"/>
      <path d="m41.49,77.08l-4.46,26.56l1.68,3.37c0,0 2.17,-4.98 2.17,-7.84c0,-8.32 2.66,-15.9 7.03,-21.69l-6.42,-0.4z" fill="#689400" id="svg_136"/>
     </g>
     <path d="m40.88,99.15c0,-9.81 3.69,-18.61 9.55,-24.63c-6.21,0 -19.85,0 -22.1,0c-2.92,0 -5.31,0.63 -5.92,2.77s-0.38,11.65 0.54,14.51c0.92,2.87 9.01,14.79 11.24,16.57c2.23,1.8 4.77,1.68 5.78,0c0.21,-0.34 0.8,-1.35 1.49,-2.55c-0.38,-2.16 -0.58,-4.39 -0.58,-6.68z" fill="#1E282E" id="svg_137"/>
     <path d="m326.84,89.32c-1.46,0 -20.69,0 -29.61,0c0.84,3.1 1.3,6.41 1.3,9.84c0,5.51 -1.17,10.71 -3.25,15.27c3.28,0 6.64,0 9.1,0c6.71,0 8.37,-1.21 9.93,-2.7c5.31,-5.14 12.62,-16.96 13.6,-18.47c1.27,-1.98 0.85,-3.94 -1.06,-3.94z" fill="#1E282E" id="svg_138"/>
     <path d="m24.88,63.14c-0.27,2.23 -0.53,4.73 -0.72,7.2c2.66,0 5.94,0 7.33,0c2.53,0 3.4,-0.64 4.74,-2.42c0.73,-0.97 1.97,-2.9 3.13,-4.78l-14.49,0z" fill="#FF8717" id="svg_139"/>
     <path d="m77.21,44.02c0,3.74 0,8.73 0,11.23c0,4.27 2.48,5.78 4.9,7.54c2.42,1.75 19.97,9.16 19.97,37.95c0,6.74 2.7,8.94 6.84,8.94s110.89,0 110.89,0c5.32,0 4.99,-4.51 4.99,-7.8s0,-30.51 0,-35.49c0,-4.17 0.03,-5.45 -2.43,-7.8c-10.9,-10.41 -44.2,-32.74 -53.97,-38.87c-4.06,-2.55 -10.25,-3.63 -35.56,-4.97c-20.03,-1.07 -31.01,-1.4 -37.31,-0.21c-1.36,0.27 -4.83,1.62 -6.88,4.46c-2.81,3.9 -6.48,9.98 -9.45,14.51c-2.2,3.35 -1.99,5.9 -1.99,10.51z" fill="none" id="svg_140" stroke="#5C8500" stroke-miterlimit="10"/>
     <line fill="none" id="svg_141" stroke="#5C8500" stroke-miterlimit="10" x1="132.83" x2="150.42" y1="14.75" y2="109.81"/>
     <g id="svg_142">
      <path d="m108.89,57.06c0,1.01 -0.71,1.82 -1.57,1.82l-11.4,0c-0.86,0 -1.57,-0.81 -1.57,-1.82l0,0c0,-1 0.71,-1.81 1.57,-1.81l11.4,0c0.86,0 1.57,0.81 1.57,1.81l0,0z" fill="#1E282E" id="svg_143"/>
      <path d="m163.15,57.06c0,1.01 -0.69,1.82 -1.57,1.82l-11.4,0c-0.86,0 -1.57,-0.81 -1.57,-1.82l0,0c0,-1 0.71,-1.81 1.57,-1.81l11.4,0c0.86,0 1.57,0.81 1.57,1.81l0,0z" fill="#1E282E" id="svg_144"/>
     </g>
    </g>
    <g id="svg_145">
     <ellipse cx="242.91" cy="131.64" fill="#1C1C1A" id="svg_146" rx="23.7" ry="23.7" transform="matrix(0.698462 -0.891793 0.766815 0.8123 -201.365 209.363)"/>
     <ellipse cx="320.98" cy="230.38" fill="#BFBFBF" id="svg_147" rx="11.65" ry="11.65" transform="matrix(0.1672 -1.19046 1.02363 0.19445 -220.263 436.99)"/>
     <ellipse cx="321.08" cy="230.68" fill="#404B52" id="svg_148" rx="8.61" ry="8.61" transform="matrix(0.165747 -1.19083 1.02394 0.192761 -220.167 437.565)"/>
     <rect fill="#BFBFBF" height="24.95" id="svg_149" width="1.57" x="68.44" y="87.18"/>
     <g id="svg_150">
      <rect fill="#BFBFBF" height="24.95" id="svg_151" width="1.57" x="68.44" y="87.18"/>
      <rect fill="#BFBFBF" height="1.82" id="svg_152" width="21.45" x="58.51" y="98.75"/>
     </g>
     <g id="svg_153">
      <rect fill="#BFBFBF" height="24.95" id="svg_154" width="1.57" x="68.44" y="87.18"/>
      <rect fill="#BFBFBF" height="1.82" id="svg_155" width="21.45" x="58.51" y="98.75"/>
     </g>
     <g id="svg_156">
      <rect fill="#BFBFBF" height="20.68" id="svg_157" transform="matrix(0.733417 -0.852951 0.733417 0.852951 -194.976 192.173)" width="1.51" x="233.58" y="115.55"/>
      <rect fill="#BFBFBF" height="1.51" id="svg_158" transform="matrix(0.733417 -0.852951 0.733417 0.852951 -194.962 192.138)" width="20.68" x="224" y="125.14"/>
     </g>
     <circle cx="69.23" cy="99.66" fill="#D9D9D9" id="svg_159" r="5.02"/>
    </g>
    <g id="svg_160">
     <ellipse cx="428.31" cy="125.89" fill="#1C1C1A" id="svg_161" rx="23.7" ry="23.7" transform="matrix(0.733417 -0.852951 0.733417 0.852951 -136.043 357.6)"/>
     <ellipse cx="515.07" cy="230.72" fill="#BFBFBF" id="svg_162" rx="11.65" ry="11.65" transform="matrix(0.16554 -1.19083 1.02394 0.19252 -51.0816 668.6)"/>
     <ellipse cx="428.31" cy="125.89" fill="#404B52" id="svg_163" rx="8.61" ry="8.61" transform="matrix(0.733417 -0.852951 0.733417 0.852951 -136.043 357.6)"/>
     <rect fill="#BFBFBF" height="24.95" id="svg_164" width="1.57" x="269.63" y="87.18"/>
     <g id="svg_165">
      <rect fill="#BFBFBF" height="24.95" id="svg_166" width="1.57" x="269.63" y="87.18"/>
      <rect fill="#BFBFBF" height="1.82" id="svg_167" width="21.45" x="259.7" y="98.75"/>
     </g>
     <g id="svg_168">
      <rect fill="#BFBFBF" height="24.95" id="svg_169" width="1.57" x="269.63" y="87.18"/>
      <rect fill="#BFBFBF" height="1.82" id="svg_170" width="21.45" x="259.7" y="98.75"/>
     </g>
     <g id="svg_171">
      <rect fill="#BFBFBF" height="20.68" id="svg_172" transform="matrix(0.733417 -0.852951 0.733417 0.852951 -136.043 357.624)" width="1.51" x="427.55" y="115.55"/>
      <rect fill="#BFBFBF" height="1.51" id="svg_173" transform="matrix(0.733417 -0.852951 0.733417 0.852951 -136.043 357.575)" width="20.68" x="417.97" y="125.14"/>
     </g>
     <circle cx="270.42" cy="99.66" fill="#D9D9D9" id="svg_174" r="5.02"/>
    </g>
   </g>
   <path d="m198.36,40.08c-4.85,-0.9 -6.51,2.53 -7.14,7.04c-0.63,4.52 0.01,8.4 4.87,9.3c4.85,0.92 12.27,-2.77 12.72,-6c0.45,-3.23 -5.59,-9.43 -10.46,-10.35z" fill="#1E282E" id="svg_175"/>
  </g>
 </g>
</svg>