<?xml version="1.0"?>
<svg width="350" height="150" xmlns="http://www.w3.org/2000/svg" xmlns:svg="http://www.w3.org/2000/svg" enable-background="new 0 0 800 800" version="1.1" xml:space="preserve">
 <!-- Created with SVG-edit - https://github.com/SVG-Edit/svgedit-->
 <title>auto4</title>
 <g class="layer">
  <title>Layer 1</title>
  <g id="svg_336">
   <path d="m164.46,26.09c0,0 52.17,15 77.58,38.16l-13.5,0l-62.16,-33.18l-1.92,-4.98z" fill="#D3F2F0" id="svg_337"/>
   <g id="svg_339">
    <g id="svg_340">
     <rect fill="#373B3D" height="42.07" id="svg_341" width="257.2" x="42.87" y="69.34"/>
     <path d="m329.75,111.24c-6.27,0 -22.77,0 -23.92,0c-1.41,0 -1.67,-1.06 -1.03,-1.76s5.02,-7.04 5.73,-7.82c0.71,-0.78 1.09,-0.78 2.77,-0.78l14.83,0c-0.98,-5.57 -2.14,-11.54 -3.21,-15.84c-2.63,-10.54 -2.49,-21.09 -15.47,-24.92c-12.98,-3.83 -44.56,-10.06 -78.66,-10.06c0,0 -41.83,-24.27 -52.48,-30.5c-7.43,-4.35 -13.57,-7.35 -25.39,-7.35c-13.19,0 -77.02,4.78 -90.15,11.5c-2.19,1.12 -4.36,2.51 -6.47,4.09c1.46,0.33 2.71,0.77 3.14,1.34c1.32,1.69 -6.68,16.1 -8.54,18.07c-1.86,1.98 -5.48,3.21 -9.09,2.92c-0.92,-0.07 -1.87,-0.33 -2.8,-0.67c-1.36,3.33 -2.14,6.64 -2.14,9.7c0,0 -10.61,5.76 -10.61,19.65c0,13.89 0,33.54 0,33.54l21.21,3.83c0,0 0.6,0 1.73,0l0,-14.69c0,-15.96 11.83,-28.91 26.41,-28.91c14.58,0 26.4,12.94 26.4,28.91l0,14.69c37.32,0 87.71,0 131.15,0l0,-14.69c0,-15.96 11.82,-28.91 26.4,-28.91c14.58,0 26.4,12.94 26.4,28.91l0,14.69c23.11,0 38.38,0 38.97,0c4.01,0 4.88,-2.55 4.82,-4.94z" fill="#005799" id="svg_342"/>
     <path d="m26.3,77.42c5.33,0 16.31,0 17.87,0c2.08,0 2.53,-0.95 3.21,-2.31c0.68,-1.35 2.84,-6.81 3.21,-7.82c0.37,-1.02 0.86,-2.69 -0.68,-3.21c-1.54,-0.5 -13.04,-4.93 -13.04,-4.93s-9.9,5.38 -10.57,18.26z" fill="#FF0A0A" id="svg_343"/>
     <path d="m59.44,29.14c-0.43,-0.57 -1.68,-1.01 -3.14,-1.34c-7.44,5.59 -14.04,13.71 -17.29,21.66c0.93,0.34 1.88,0.6 2.8,0.67c3.61,0.28 7.23,-0.94 9.09,-2.91c1.86,-1.98 9.85,-16.39 8.54,-18.08z" fill="#D3F2F0" id="svg_344"/>
     <polygon fill="#21201E" id="svg_345" points="325.344970703125,99.21066284179688 326.98797607421875,113.29104614257812 298.94598388671875,113.29104614257812 308.13299560546875,99.21066284179688 "/>
     <path d="m99.06,88.21c1.88,3.99 2.95,8.5 2.95,13.28l0,14.69c37.32,0 87.71,0 131.15,0l0,-14.69c0,-4.78 1.07,-9.3 2.95,-13.28l-137.05,0z" fill="#004D87" id="svg_346"/>
     <path d="m285.96,101.49l0,14.69c23.1,0 38.38,0 38.97,0c4.01,0 4.88,-2.55 4.82,-4.94c-6.27,0 -22.77,0 -23.92,0c-1.41,0 -1.67,-1.06 -1.03,-1.76s5.02,-7.04 5.73,-7.82c0.71,-0.78 1.09,-0.78 2.76,-0.78l14.84,0c-0.76,-4.3 -1.62,-8.85 -2.47,-12.68l-42.65,0c1.88,3.97 2.95,8.5 2.95,13.28z" fill="#004D87" id="svg_347"/>
     <path d="m47.38,75.11c0.31,-0.6 0.91,-2.06 1.52,-3.56l-19.75,-4.25c-1.48,2.65 -2.63,6 -2.85,10.12c5.33,0 16.31,0 17.87,0c2.08,0 2.53,-0.95 3.21,-2.31z" fill="#FF8717" id="svg_348"/>
     <path d="m49.2,101.49c0,-4.91 1.13,-9.53 3.1,-13.58l-27.17,0c-1.93,0 -3.5,1.72 -3.5,3.83l0,20.61c0,2.11 1.57,3.83 3.5,3.83l24.07,0l0,-14.69z" fill="#004D87" id="svg_349"/>
     <path d="m298.79,83.23l18.78,0c0,-6.99 -8.69,-13.03 -16.63,-13.03c-7.94,0 -20.22,0 -20.22,0s8.33,8.33 9.54,9.46c1.21,1.14 3.77,3.57 8.53,3.57z" fill="#F2EFDF" id="svg_350"/>
     <path d="m291.75,70.2c-6.99,0 -12.22,0 -12.22,0s8.34,8.33 9.54,9.46c1.21,1.14 3.78,3.57 8.54,3.57l10.77,0c0,-6.99 -8.69,-13.03 -16.63,-13.03z" fill="#DEDBCC" id="svg_351"/>
     <path d="m88.44,29.29l10.24,22.32c10.57,0 27.33,0 44.91,0l-14.57,-31.76c-18.32,2.01 -31.78,5.85 -40.58,9.44zm67.55,-10.86c-7.14,0 -13.77,0.28 -19.93,0.77l14.88,32.42c32.34,0 64.91,0 64.91,0s-44.11,-33.19 -59.86,-33.19z" fill="#D3F2F0" id="svg_352"/>
     <g id="svg_353" opacity="0.8">
      <path d="m129.55,21.01l-0.53,-1.16c-2.46,0.27 -4.82,0.58 -7.1,0.91l-26.46,23.84l2.31,5.05l31.78,-28.63z" fill="#FFFFFF" id="svg_354"/>
      <path d="m160.29,19.04l-17.19,15.48l5.54,12.08l24.74,-22.29c-4.84,-2.44 -9.36,-4.35 -13.09,-5.27z" fill="#FFFFFF" id="svg_355"/>
      <path d="m88.44,29.29l1.85,4.03l8.44,-7.6c-3.94,1.16 -7.38,2.38 -10.29,3.57z" fill="#FFFFFF" id="svg_356"/>
      <path d="m110.86,22.69c-2.34,0.49 -4.56,1.01 -6.67,1.53l-12.79,11.53l1.45,3.16l18.01,-16.23z" fill="#FFFFFF" id="svg_357"/>
      <path d="m136.33,19.76l1.02,2.23l3.48,-3.13c-1.29,0.08 -2.54,0.16 -3.79,0.26l-0.71,0.64z" fill="#FFFFFF" id="svg_358"/>
      <path d="m193.24,35.93c-1.53,-0.97 -3.08,-1.96 -4.65,-2.93l-20.68,18.62c2.69,0 5.33,0 7.92,0l17.41,-15.69z" fill="#FFFFFF" id="svg_359"/>
      <path d="m132.15,26.68l-1.02,-2.23l-30.15,27.16c1.11,0 2.29,0 3.51,0l27.66,-24.93z" fill="#FFFFFF" id="svg_360"/>
      <path d="m211.34,48.31c-2.59,-1.87 -6.13,-4.38 -10.22,-7.16l-11.62,10.47c7.29,0 13.57,0 18.17,0l3.67,-3.31z" fill="#FFFFFF" id="svg_361"/>
      <path d="m184.17,30.3c-1,-0.6 -2.01,-1.19 -3.02,-1.76l-25.62,23.08c1.67,0 3.33,0 4.98,0l23.66,-21.32z" fill="#FFFFFF" id="svg_362"/>
      <path d="m143.44,51.29l-5.54,-12.08l-13.77,12.41c6.01,0 12.42,0 18.95,0l0.36,-0.33z" fill="#FFFFFF" id="svg_363"/>
     </g>
     <path d="m88.44,29.29c0,0 21.38,-9.53 44.46,-10.19l40.94,92.92c0,0 -54.42,0 -58.58,0c-4.16,0 -5.66,-6.74 -8.32,-22.96c-2.66,-16.22 -17.64,-21.68 -17.64,-23.68c0,-2 6.99,-14.39 6.99,-14.39" fill="none" id="svg_364" stroke="#004070" stroke-linecap="round" stroke-linejoin="round" stroke-miterlimit="10"/>
     <path d="m155.99,18.43" fill="none" id="svg_365" stroke="#004070" stroke-linecap="round" stroke-linejoin="round" stroke-miterlimit="10"/>
     <path d="m173.84,112.02l48.92,0c3.33,0 3.49,-2.79 3.49,-5.77c0,-2.98 -6.49,-53.26 -6.49,-53.26s-20.05,-13.23 -34.74,-22.19c-14.69,-8.96 -23.61,-12.42 -29.03,-12.36c-5.43,0.05 -23.09,0.66 -23.09,0.66" fill="none" id="svg_366" stroke="#004070" stroke-linecap="round" stroke-linejoin="round" stroke-miterlimit="10"/>
     <path d="m214.34,44.19c-4.69,-0.82 -6.28,2.3 -6.89,6.41c-0.6,4.09 0.02,7.61 4.7,8.44c4.69,0.82 11.84,-2.52 12.27,-5.45c0.43,-2.93 -5.4,-8.56 -10.08,-9.39z" fill="#21201E" id="svg_367"/>
     <path d="m88.44,29.29c-6.09,2.47 -9.96,4.84 -11.67,6.39c-5.25,4.8 -3.93,15.93 12.7,15.93c1.92,0 5.1,0 9.21,0l-10.24,-22.32z" fill="#21201E" id="svg_368"/>
     <path d="m109.84,59.52c0,0.89 -0.66,1.61 -1.48,1.61l-7.82,0c-0.82,0 -1.48,-0.72 -1.48,-1.61l0,0c0,-0.9 0.66,-1.62 1.48,-1.62l7.82,0c0.82,0 1.48,0.72 1.48,1.62l0,0z" fill="#21201E" id="svg_369"/>
     <path d="m169.85,59.52c0,0.89 -0.66,1.61 -1.48,1.61l-7.82,0c-0.82,0 -1.48,-0.72 -1.48,-1.61l0,0c0,-0.9 0.66,-1.62 1.48,-1.62l7.82,0c0.82,0 1.48,0.72 1.48,1.62l0,0z" fill="#21201E" id="svg_370"/>
    </g>
    <g id="svg_371">
     <g id="svg_372">
      <ellipse cx="778.18" cy="33.52" fill="#0D1214" id="svg_373" rx="24.53" ry="24.53" transform="matrix(0.1614 -1.08056 0.9869 0.176717 -83.107 937.095)"/>
      <ellipse cx="745.42" cy="12.6" fill="#B3B3B3" id="svg_374" rx="15.22" ry="15.22" transform="matrix(0.2313 -1.06523 0.9729 0.25325 -109.084 893.026)"/>
      <ellipse cx="248.69" cy="-16.61" fill="#D1D1D1" id="svg_375" rx="11.36" ry="11.36" transform="matrix(0.925 -0.416062 0.38 1.01278 -148.164 222.497)"/>
      <ellipse cx="778.55" cy="33.75" fill="#373B3D" id="svg_376" rx="8.53" ry="8.53" transform="matrix(0.1606 -1.08067 0.987 0.175841 -82.793 937.587)"/>
      <g id="svg_377">
       <g id="svg_378">
        <polygon fill="#D1D1D1" id="svg_379" points="75.0469970703125,102.73623657226562 73.99899291992188,101.58878326416016 68.33999633789062,109.04721069335938 68.81201171875,109.56291961669922 69.28298950195312,110.07970428466797 76.09500122070312,103.8836669921875 "/>
        <polygon fill="#D1D1D1" id="svg_380" points="76.09201049804688,101.5920639038086 77.1400146484375,102.73951721191406 82.79800415039062,95.28215789794922 82.32699584960938,94.76534271240234 81.85501098632812,94.24967956542969 75.04400634765625,100.4457015991211 "/>
       </g>
       <g id="svg_381">
        <polygon fill="#D1D1D1" id="svg_382" points="76.09201049804688,102.73623657226562 75.04400634765625,103.8836669921875 81.85501098632812,110.07970428466797 82.32699584960938,109.56291961669922 82.79800415039062,109.04721069335938 77.1400146484375,101.58878326416016 "/>
        <polygon fill="#D1D1D1" id="svg_383" points="75.0469970703125,101.5920639038086 76.09500122070312,100.4457015991211 69.28298950195312,94.24967956542969 68.81201171875,94.76534271240234 68.33999633789062,95.28215789794922 73.99899291992188,102.73951721191406 "/>
       </g>
      </g>
      <g id="svg_384">
       <g id="svg_385">
        <polygon fill="#D1D1D1" id="svg_386" points="75.0469970703125,102.73623657226562 73.99899291992188,101.58878326416016 68.33999633789062,109.04721069335938 68.81201171875,109.56291961669922 69.28298950195312,110.07970428466797 76.09500122070312,103.8836669921875 "/>
        <polygon fill="#D1D1D1" id="svg_387" points="76.09201049804688,101.5920639038086 77.1400146484375,102.73951721191406 82.79800415039062,95.28215789794922 82.32699584960938,94.76534271240234 81.85501098632812,94.24967956542969 75.04400634765625,100.4457015991211 "/>
       </g>
       <g id="svg_388">
        <polygon fill="#D1D1D1" id="svg_389" points="76.09201049804688,102.73623657226562 75.04400634765625,103.8836669921875 81.85501098632812,110.07970428466797 82.32699584960938,109.56291961669922 82.79800415039062,109.04721069335938 77.1400146484375,101.58878326416016 "/>
        <polygon fill="#D1D1D1" id="svg_390" points="75.0469970703125,101.5920639038086 76.09500122070312,100.4457015991211 69.28298950195312,94.24967956542969 68.81201171875,94.76534271240234 68.33999633789062,95.28215789794922 73.99899291992188,102.73951721191406 "/>
       </g>
      </g>
      <g id="svg_391">
       <g id="svg_392">
        <polygon fill="#D1D1D1" id="svg_393" points="75.56900024414062,102.97381591796875 74.08700561523438,102.97381591796875 74.90200805664062,112.62755584716797 75.56900024414062,112.62755584716797 76.23599243164062,112.62755584716797 77.05099487304688,102.97381591796875 "/>
        <polygon fill="#D1D1D1" id="svg_394" points="75.56900024414062,101.35556030273438 77.05099487304688,101.35556030273438 76.23599243164062,91.70074462890625 75.56900024414062,91.70074462890625 74.90200805664062,91.70074462890625 74.08700561523438,101.35556030273438 "/>
       </g>
       <g id="svg_395">
        <polygon fill="#D1D1D1" id="svg_396" points="76.30801391601562,102.16470336914062 76.30801391601562,103.78733825683594 85.12600708007812,102.89498901367188 85.12600708007812,102.16470336914062 85.12600708007812,101.43437957763672 76.30801391601562,100.54203033447266 "/>
        <polygon fill="#D1D1D1" id="svg_397" points="74.83099365234375,102.16470336914062 74.83099365234375,100.54203033447266 66.01300048828125,101.43437957763672 66.01300048828125,102.16470336914062 66.01300048828125,102.89498901367188 74.83099365234375,103.78733825683594 "/>
       </g>
      </g>
      <circle cx="75.57" cy="102.17" fill="#B3B3B3" id="svg_398" r="4.12"/>
     </g>
     <g id="svg_399">
      <ellipse cx="516.79" cy="-45.75" fill="#0D1214" id="svg_400" rx="24.53" ry="24.53" transform="matrix(0.8508 -0.575369 0.5255 0.93154 -156.126 442.117)"/>
      <ellipse cx="641.9" cy="-62.81" fill="#B3B3B3" id="svg_401" rx="15.22" ry="15.22" transform="matrix(0.7071 -0.774203 0.7071 0.774203 -149.971 647.758)"/>
      <ellipse cx="641.9" cy="-62.81" fill="#D1D1D1" id="svg_402" rx="11.36" ry="11.36" transform="matrix(0.7071 -0.774203 0.7071 0.774203 -149.971 647.758)"/>
      <ellipse cx="962.48" cy="33.75" fill="#373B3D" id="svg_403" rx="8.53" ry="8.53" transform="matrix(0.1606 -1.08067 0.987 0.175841 71.6004 1136.36)"/>
      <g id="svg_404">
       <g id="svg_405">
        <polygon fill="#D1D1D1" id="svg_406" points="258.98199462890625,102.73623657226562 257.93402099609375,101.58878326416016 252.2760009765625,109.04721069335938 252.74700927734375,109.56291961669922 253.218994140625,110.07970428466797 260.030029296875,103.8836669921875 "/>
        <polygon fill="#D1D1D1" id="svg_407" points="260.0269775390625,101.5920639038086 261.07501220703125,102.73951721191406 266.7340087890625,95.28215789794922 266.26202392578125,94.76534271240234 265.78997802734375,94.24967956542969 258.97900390625,100.4457015991211 "/>
       </g>
       <g id="svg_408">
        <polygon fill="#D1D1D1" id="svg_409" points="260.0269775390625,102.73623657226562 258.97900390625,103.8836669921875 265.78997802734375,110.07970428466797 266.26202392578125,109.56291961669922 266.7340087890625,109.04721069335938 261.07501220703125,101.58878326416016 "/>
        <polygon fill="#D1D1D1" id="svg_410" points="258.98199462890625,101.5920639038086 260.030029296875,100.4457015991211 253.218994140625,94.24967956542969 252.74700927734375,94.76534271240234 252.2760009765625,95.28215789794922 257.93402099609375,102.73951721191406 "/>
       </g>
      </g>
      <g id="svg_411">
       <g id="svg_412">
        <polygon fill="#D1D1D1" id="svg_413" points="258.98199462890625,102.73623657226562 257.93402099609375,101.58878326416016 252.2760009765625,109.04721069335938 252.74700927734375,109.56291961669922 253.218994140625,110.07970428466797 260.030029296875,103.8836669921875 "/>
        <polygon fill="#D1D1D1" id="svg_414" points="260.0269775390625,101.5920639038086 261.07501220703125,102.73951721191406 266.7340087890625,95.28215789794922 266.26202392578125,94.76534271240234 265.78997802734375,94.24967956542969 258.97900390625,100.4457015991211 "/>
       </g>
       <g id="svg_415">
        <polygon fill="#D1D1D1" id="svg_416" points="260.0269775390625,102.73623657226562 258.97900390625,103.8836669921875 265.78997802734375,110.07970428466797 266.26202392578125,109.56291961669922 266.7340087890625,109.04721069335938 261.07501220703125,101.58878326416016 "/>
        <polygon fill="#D1D1D1" id="svg_417" points="258.98199462890625,101.5920639038086 260.030029296875,100.4457015991211 253.218994140625,94.24967956542969 252.74700927734375,94.76534271240234 252.2760009765625,95.28215789794922 257.93402099609375,102.73951721191406 "/>
       </g>
      </g>
      <g id="svg_418">
       <g id="svg_419">
        <polygon fill="#D1D1D1" id="svg_420" points="259.5050048828125,102.97381591796875 258.02301025390625,102.97381591796875 258.8380126953125,112.62755584716797 259.5050048828125,112.62755584716797 260.1719970703125,112.62755584716797 260.98699951171875,102.97381591796875 "/>
        <polygon fill="#D1D1D1" id="svg_421" points="259.5050048828125,101.35556030273438 260.98699951171875,101.35556030273438 260.1719970703125,91.70074462890625 259.5050048828125,91.70074462890625 258.8380126953125,91.70074462890625 258.02301025390625,101.35556030273438 "/>
       </g>
       <g id="svg_422">
        <polygon fill="#D1D1D1" id="svg_423" points="260.24298095703125,102.16470336914062 260.24298095703125,103.78733825683594 269.06097412109375,102.89498901367188 269.06097412109375,102.16470336914062 269.06097412109375,101.43437957763672 260.24298095703125,100.54203033447266 "/>
        <polygon fill="#D1D1D1" id="svg_424" points="258.7659912109375,102.16470336914062 258.7659912109375,100.54203033447266 249.947998046875,101.43437957763672 249.947998046875,102.16470336914062 249.947998046875,102.89498901367188 258.7659912109375,103.78733825683594 "/>
       </g>
      </g>
      <circle cx="259.5" cy="102.17" fill="#B3B3B3" id="svg_425" r="4.12"/>
     </g>
    </g>
   </g>
  </g>
 </g>
</svg>