<?xml version="1.0"?>
<svg width="350" height="150" xmlns="http://www.w3.org/2000/svg" xmlns:svg="http://www.w3.org/2000/svg" enable-background="new 0 0 800 800" version="1.1" xml:space="preserve">
 <!-- Created with SVG-edit - https://github.com/SVG-Edit/svgedit-->
 <title>auto4</title>
 <g class="layer">
  <title>Layer 1</title>
  <g id="svg_273">
   <g id="svg_275">
    <g id="svg_276">
     <polygon fill="#1E282E" id="svg_277" points="322.98486328125,91.57413482666016 326.3758544921875,122.05052947998047 299.005859375,122.05052947998047 299.005859375,91.2859115600586 "/>
     <path d="m291.65,122.78l0,-17.42c0,-20.51 -14.53,-37.13 -32.46,-37.13c-17.93,0 -32.46,16.63 -32.46,37.13l0,17.42l64.92,0z" fill="#2C353B" id="svg_278"/>
     <path d="m110.18,122.78l0,-17.42c0,-20.51 -14.53,-37.13 -32.46,-37.13c-17.93,0 -32.46,16.63 -32.46,37.13l0,17.42l64.92,0z" fill="#2C353B" id="svg_279"/>
     <path d="m122.33,22.26c-23.75,6.92 -49.02,17.52 -66.65,25.61c3.94,0.86 8.93,1.69 11.5,1.01c4.62,-1.21 50.68,-21.82 53.77,-23.28c1.43,-0.68 1.69,-2.08 1.38,-3.34z" fill="#D3F2F0" id="svg_280"/>
     <path d="m304.99,119.63c0,0 1.24,-4.14 2.74,-8.85l18.05,0c1.05,0 1.9,-1.07 1.9,-2.39c0,-1.31 -0.85,-2.38 -1.9,-2.38l-16.5,0c0.29,-0.87 0.57,-1.7 0.85,-2.5c2.28,-6.59 3.33,-7.36 7.61,-7.36c1.96,0 1.98,0 5.24,0c1.04,0 2.48,-2.28 2.21,-3.41c-2.51,-10.55 -6.06,-20.94 -10.14,-24.66c-8.74,-7.94 -78.01,-17.27 -78.01,-17.27c-56.36,-36.52 -60.32,-35.76 -74.44,-35.76c-11.36,0 -25.52,2.89 -40.28,7.21c0.32,1.26 0.06,2.67 -1.37,3.34c-3.09,1.46 -49.15,22.08 -53.78,23.28c-2.56,0.68 -7.56,-0.14 -11.5,-1.01c-13.24,6.08 -22.18,10.75 -22.91,11.4c-1.78,1.57 -11.02,34.23 -11.71,38.58c-0.69,4.33 6.89,19.94 10.33,23.84c3.44,3.9 7.23,4.77 11.71,4.77c1.01,0 2.82,0 5.23,0l0,-16.69c0,-19.02 12.25,-34.42 27.35,-34.42c15.11,0 27.36,15.4 27.36,34.42l0,16.69c25.44,0 64.05,0 64.05,0s30.86,0 64.61,0l0,-16.69c0,-19.02 12.25,-34.42 27.35,-34.42c15.11,0 27.35,15.4 27.35,34.42l0,16.69c17.33,0 29.8,0 30.9,0c9.06,0 10.73,-3.2 11.62,-6.83l-23.92,0z" fill="#AB1039" id="svg_281"/>
     <path d="m25.67,80.35c0.01,0 11.7,-0.88 14.7,-1.3c2.99,-0.42 4.31,-3.3 4.89,-5.26c0.58,-1.95 2.02,-8.68 2.36,-10.5c0.33,-1.82 -0.37,-2.81 -2.36,-3.22c-1.07,-0.24 -4.97,-1.77 -8.33,-3.13c-2.43,1.26 -3.89,2.09 -4.17,2.33c-0.99,0.88 -4.25,11.25 -7.09,21.08z" fill="#FF0A0A" id="svg_282"/>
     <path d="m45.26,73.8c0.25,-0.84 0.65,-2.55 1.07,-4.39c-5.3,-1.09 -11.77,-2.38 -16.36,-3.12c-1.31,3.95 -2.86,9.07 -4.3,14.06c0.01,0 11.71,-0.88 14.7,-1.3c2.99,-0.42 4.31,-3.3 4.89,-5.25z" fill="#FF8717" id="svg_283"/>
     <g id="svg_284">
      <path d="m286.39,109.77l0,16.69c17.33,0 29.81,0 30.9,0c9.06,0 10.74,-3.21 11.63,-6.83l-23.93,0c0,0 1.24,-4.14 2.74,-8.85l18.05,0c1.05,0 1.9,-1.07 1.9,-2.39s-0.85,-2.38 -1.9,-2.38l-16.5,0c0.29,-0.87 0.57,-1.7 0.85,-2.5c2.28,-6.59 3.33,-7.36 7.61,-7.36c1.96,0 1.98,0 5.24,0c1.04,0 2.48,-2.28 2.21,-3.41c-0.57,-2.39 -1.19,-4.77 -1.86,-7.06l-44.77,0c4.84,6.2 7.83,14.71 7.83,24.1z" fill="#990E33" id="svg_285"/>
      <path d="m31.38,121.69c3.45,3.9 7.24,4.77 11.71,4.77c1.01,0 2.82,0 5.23,0l0,-16.69c0,-9.39 2.99,-17.9 7.84,-24.11l-31.99,0c-1.62,5.81 -2.88,10.7 -3.12,12.2c-0.69,4.33 6.89,19.94 10.33,23.84z" fill="#990E33" id="svg_286"/>
      <path d="m167.08,126.46c0,0 30.86,0 64.61,0l0,-16.69c0,-9.39 2.99,-17.9 7.83,-24.11l-144.33,0c4.85,6.22 7.84,14.73 7.84,24.11l0,16.69c25.44,0 64.05,0 64.05,0z" fill="#990E33" id="svg_287"/>
     </g>
     <path d="m292.57,70.75c-2.12,0 -2.72,1.65 -1.33,3.66l6.45,9.36c1.38,2.01 4.25,3.66 6.36,3.66l11.76,0c2.12,0 2.7,-1.64 1.29,-3.62l-6.68,-9.44c-1.41,-2 -4.29,-3.62 -6.4,-3.62l-11.45,0z" fill="#DEDBCC" id="svg_288"/>
     <path d="m317.1,83.82l-6.68,-9.44c-1.41,-2 -4.29,-3.62 -6.4,-3.62l-4.27,0c1.8,0.69 3.68,2.15 4.75,3.84l7.05,11.16c0.38,0.6 0.62,1.17 0.73,1.69l3.53,0c2.12,0 2.7,-1.64 1.29,-3.62z" fill="#F5F2E1" id="svg_289"/>
     <path d="m23.06,105.52c3.06,0 5.21,0 6.56,0c1.92,0 3.03,0.4 3.99,2.81c0.95,2.4 8.61,18.14 8.61,18.14s-16.48,0.36 -21.12,-18.11c-0.44,-1.76 0.69,-2.83 1.96,-2.83z" fill="#1E282E" id="svg_290"/>
     <path d="m135.78,46.23c0,0 -9.48,9.49 -11.2,13.83c-1.72,4.33 5.31,47.4 6.03,52.85c0.65,4.88 3.02,7.32 7.11,7.32c4.09,0 82.48,0 82.48,0c2.61,0 3.28,-1.6 3.28,-4.95c0,-3.35 0,-62.95 0,-62.95" fill="none" id="svg_291" stroke="#870C2D" stroke-miterlimit="10"/>
     <path d="m153.69,61.25c0,1.12 -0.72,2.03 -1.61,2.03l-12.87,0c-0.89,0 -1.61,-0.91 -1.61,-2.03l0,-2.58c0,-1.12 0.72,-2.03 1.61,-2.03l12.87,0c0.89,0 1.61,0.91 1.61,2.03l0,2.58z" fill="#1E282E" id="svg_292"/>
     <path d="m155.65,46.24l0,0c-16.49,-2.86 -22.65,-11.36 -24.92,-16.8c-14.94,5.7 -30.41,13.01 -41.67,19.72c0,0 29.5,-2.91 66.59,-2.92z" fill="#1E282E" id="svg_293"/>
     <g id="svg_294">
      <path d="m155.63,46.24c21.1,-0.01 44.64,0.92 66.61,3.85c0,0 -33.15,-26.32 -47.28,-30.22c-7.83,-2.16 -25.62,2.45 -44.23,9.57c2.28,5.44 8.43,13.95 24.92,16.8l0,0c-0.01,0 -0.01,0 -0.02,0z" fill="#D3F2F0" id="svg_295"/>
     </g>
     <g id="svg_296" opacity="0.6">
      <path d="m174.96,19.87c-2.22,-0.6 -5.25,-0.68 -8.88,-0.29l-22.22,23.01c3.18,1.54 7.06,2.83 11.79,3.65l0,0c-0.01,0 -0.01,0 -0.02,0c1.4,0 2.8,0 4.22,0.01l22.5,-23.31c-2.77,-1.41 -5.29,-2.49 -7.39,-3.07z" fill="#FFFFFF" id="svg_297"/>
      <path d="m139.34,26.3c-1.82,0.63 -3.66,1.28 -5.51,1.96l-2.46,2.55c0.37,0.74 0.82,1.54 1.35,2.34l6.62,-6.86z" fill="#FFFFFF" id="svg_298"/>
      <path d="m193.83,29.66c-1.07,-0.69 -2.13,-1.36 -3.19,-2.01l-18.15,18.79c1.66,0.05 3.32,0.09 4.99,0.15l16.35,-16.93z" fill="#FFFFFF" id="svg_299"/>
      <path d="m211.71,42.07l-5.98,6.19c5.56,0.49 11.08,1.09 16.51,1.82c0,0 -4.34,-3.45 -10.53,-8.02z" fill="#FFFFFF" id="svg_300"/>
      <path d="m203.4,36.09c-1.6,-1.12 -3.25,-2.25 -4.9,-3.37l-13.67,14.16c2.58,0.11 5.17,0.25 7.76,0.4l10.81,-11.19z" fill="#FFFFFF" id="svg_301"/>
     </g>
     <path d="m215.01,39.18c-6,-1.21 -8.04,3.39 -8.81,9.41c-0.77,6.02 0.02,11.19 6.01,12.41c5.99,1.21 15.14,-3.71 15.69,-8.02c0.55,-4.3 -6.9,-12.59 -12.89,-13.81z" fill="#1E282E" id="svg_302"/>
    </g>
    <g id="svg_303">
     <g id="svg_304">
      <circle cx="75.59" cy="110.07" fill="#0F0F0E" id="svg_305" r="25.05"/>
      <ellipse cx="599.9" cy="-107.59" fill="#85857B" id="svg_306" rx="16.14" ry="16.14" transform="matrix(0.161 -1.24221 0.987 0.202631 85.2107 877.043)"/>
      <circle cx="75.59" cy="110.07" fill="#ABAB9E" id="svg_307" r="13.88"/>
      <ellipse cx="190.62" cy="-28.03" fill="#1E282E" id="svg_308" rx="10.82" ry="10.82" transform="matrix(0.9123 -0.515387 0.4095 1.1482 -86.8377 240.454)"/>
      <g id="svg_309">
       <g id="svg_310">
        <polygon fill="#ABAB9E" id="svg_311" points="76.54583740234375,112.6049575805664 75.58786010742188,112.04737854003906 74.62884521484375,112.6049575805664 73.66986083984375,126.71607208251953 75.58786010742188,126.71607208251953 77.50485229492188,126.71607208251953 "/>
        <polygon fill="#ABAB9E" id="svg_312" points="74.62884521484375,107.53163146972656 75.58786010742188,108.08790588378906 76.54583740234375,107.53163146972656 77.50485229492188,93.42047882080078 75.58786010742188,93.42047882080078 73.66986083984375,93.42047882080078 "/>
       </g>
       <g id="svg_313">
        <polygon fill="#ABAB9E" id="svg_314" points="77.81884765625,110.13435363769531 76.99185180664062,110.96125793457031 76.953857421875,112.28904724121094 86.52883911132812,119.72972869873047 87.39385986328125,117.57630157470703 88.25885009765625,115.42161560058594 "/>
        <polygon fill="#ABAB9E" id="svg_315" points="73.35684204101562,110.00096130371094 74.183837890625,109.17533111572266 74.22085571289062,107.84754180908203 64.64584350585938,100.40682220458984 63.780853271484375,102.56024169921875 62.916839599609375,104.71492767333984 "/>
       </g>
       <g id="svg_316">
        <polygon fill="#ABAB9E" id="svg_317" points="73.35684204101562,110.13435363769531 74.183837890625,110.96125793457031 74.22085571289062,112.28904724121094 64.64584350585938,119.72972869873047 63.780853271484375,117.57630157470703 62.916839599609375,115.42161560058594 "/>
        <polygon fill="#ABAB9E" id="svg_318" points="77.81884765625,110.00096130371094 76.99185180664062,109.17533111572266 76.953857421875,107.84754180908203 86.52883911132812,100.40682220458984 87.39385986328125,102.56024169921875 88.25885009765625,104.71492767333984 "/>
       </g>
      </g>
      <path d="m79.05,110.07c0,2.4 -1.55,4.35 -3.46,4.35c-1.91,0 -3.46,-1.95 -3.46,-4.35c0,-2.42 1.55,-4.37 3.46,-4.37c1.91,0 3.46,1.95 3.46,4.37z" fill="#CCCCBC" id="svg_319"/>
     </g>
     <g id="svg_320">
      <circle cx="258.98" cy="110.07" fill="#0F0F0E" id="svg_321" r="25.05"/>
      <ellipse cx="771.29" cy="-111.15" fill="#85857B" id="svg_322" rx="16.14" ry="16.14" transform="matrix(0.189 -1.23592 0.982 0.237871 222.345 1089.73)"/>
      <circle cx="258.98" cy="110.07" fill="#ABAB9E" id="svg_323" r="13.88"/>
      <ellipse cx="753.07" cy="-115.84" fill="#1E282E" id="svg_324" rx="10.82" ry="10.82" transform="matrix(0.2308 -1.22459 0.973 0.290479 197.869 1065.91)"/>
      <g id="svg_325">
       <g id="svg_326">
        <polygon fill="#ABAB9E" id="svg_327" points="259.93890380859375,112.6049575805664 258.9798583984375,112.04737854003906 258.0208740234375,112.6049575805664 257.0618896484375,126.71607208251953 258.9798583984375,126.71607208251953 260.8968505859375,126.71607208251953 "/>
        <polygon fill="#ABAB9E" id="svg_328" points="258.0208740234375,107.53163146972656 258.9798583984375,108.08790588378906 259.93890380859375,107.53163146972656 260.8968505859375,93.42047882080078 258.9798583984375,93.42047882080078 257.0618896484375,93.42047882080078 "/>
       </g>
       <g id="svg_329">
        <polygon fill="#ABAB9E" id="svg_330" points="261.2108154296875,110.13435363769531 260.3839111328125,110.96125793457031 260.3458251953125,112.28904724121094 269.9208984375,119.72972869873047 270.785888671875,117.57630157470703 271.65087890625,115.42161560058594 "/>
        <polygon fill="#ABAB9E" id="svg_331" points="256.7489013671875,110.00096130371094 257.5758056640625,109.17533111572266 257.61279296875,107.84754180908203 248.037841796875,100.40682220458984 247.17291259765625,102.56024169921875 246.308837890625,104.71492767333984 "/>
       </g>
       <g id="svg_332">
        <polygon fill="#ABAB9E" id="svg_333" points="256.7489013671875,110.13435363769531 257.5758056640625,110.96125793457031 257.61279296875,112.28904724121094 248.037841796875,119.72972869873047 247.17291259765625,117.57630157470703 246.308837890625,115.42161560058594 "/>
        <polygon fill="#ABAB9E" id="svg_334" points="261.2108154296875,110.00096130371094 260.3839111328125,109.17533111572266 260.3458251953125,107.84754180908203 269.9208984375,100.40682220458984 270.785888671875,102.56024169921875 271.65087890625,104.71492767333984 "/>
       </g>
      </g>
      <path d="m262.45,110.07c0,2.4 -1.55,4.35 -3.47,4.35c-1.91,0 -3.46,-1.95 -3.46,-4.35c0,-2.42 1.55,-4.37 3.46,-4.37c1.91,0 3.47,1.95 3.47,4.37z" fill="#CCCCBC" id="svg_335"/>
     </g>
    </g>
   </g>
  </g>
 </g>
</svg>