<?xml version="1.0"?>
<svg width="350" height="150" xmlns="http://www.w3.org/2000/svg" xmlns:svg="http://www.w3.org/2000/svg" enable-background="new 0 0 800 800" version="1.1" xml:space="preserve">
 <!-- Created with SVG-edit - https://github.com/SVG-Edit/svgedit-->
 <title>auto4</title>
 <g class="layer">
  <title>Layer 1</title>
  <g id="svg_176">
   <g id="svg_178">
    <g id="svg_179">
     <path d="m329.34,85.08c0,0.93 -0.81,1.69 -1.8,1.69l-4.25,0c-1,0 -1.8,-0.75 -1.8,-1.69l0,-12.48c0,-0.93 0.81,-1.69 1.8,-1.69l4.25,0c1,0 1.8,0.75 1.8,1.69l0,12.48z" fill="#F2E398" id="svg_180"/>
     <path d="m327.6,85.9c0,0.93 -0.82,1.69 -1.81,1.69l-4.24,0c-1,0 -1.8,-0.75 -1.8,-1.69l0,-14.6c0,-0.93 0.81,-1.69 1.8,-1.69l4.24,0c1,0 1.81,0.75 1.81,1.69l0,14.6z" fill="#D40404" id="svg_181"/>
     <path d="m47.16,79.79c0,0 0,-16.39 0,-19.73c0,-3.33 0.2,-5.12 1.84,-8.96c1.64,-3.85 15.31,-33.05 16.41,-35.36c1.1,-2.3 2.46,-3.84 5.19,-3.84c0,0 140.6,0 143.61,0c3,0 5.12,0.76 6.76,2.82c1.64,2.05 32.03,39.94 32.03,39.94s53.71,4.36 57.51,4.95s6.56,4.16 7.62,8.32l0,6.48l-248.77,0l-22.21,5.38z" fill="#E61E1E" id="svg_182"/>
     <path d="m317.83,65.7l-254.15,0l-9.76,0l-6.55,0l0,4.77c-0.13,0.51 -0.21,1.03 -0.21,1.57l0,25.47c0,3.5 3.03,6.34 6.76,6.34l263.91,0c3.73,0 6.76,-2.84 6.76,-6.34l0,-25.47c0,-3.5 -3.03,-6.34 -6.76,-6.34z" fill="#D40404" id="svg_183"/>
     <polygon fill="#302F2B" id="svg_184" points="126.52255025745353,79.79045867919922 84.53685173722033,79.79045867919922 60.96071837032423,101.40230560302734 82.76735545662132,114.42186737060547 127.17679352585719,114.42186737060547 140.39464852868105,101.40230560302734 "/>
     <polygon fill="#302F2B" id="svg_185" points="296.54384685023206,79.79045867919922 254.55816368854312,79.79045867919922 236.03081385927317,101.40230560302734 252.7896580340489,114.42186737060547 297.1980901186357,114.42186737060547 316.0968402652102,101.40230560302734 "/>
     <path d="m326.97,106.59l0,-16.02c0,-1.75 -1.52,-3.17 -3.39,-3.17l-19.54,0c-1.86,0 -3.38,1.41 -3.38,3.17l13.16,16.02l13.16,0z" fill="#302F2B" id="svg_186"/>
     <path d="m42.06,106.59l0,-16.02c0,-1.75 1.52,-3.17 3.38,-3.17l26.3,0c1.87,0 3.39,1.41 3.39,3.17l-13.16,16.02l-19.92,0z" fill="#302F2B" id="svg_187"/>
     <path d="m121.95,53.11l52.71,0l0,-33.36c-12.8,0 -27.29,0 -41.15,0.01l-11.57,33.35zm97.19,-29.51c-1.4,-1.57 -2.94,-3.66 -5.17,-3.79c-0.68,-0.04 -13.58,-0.06 -31.24,-0.06l0,33.36l58.82,0c0,0 -21.02,-27.94 -22.41,-29.51zm-143.63,-3.79c-2.8,0 -5.17,1.7 -6.01,3.66c-0.84,1.97 -11.74,29.64 -11.74,29.64l56.12,0l11.56,-33.34c-26.44,0.01 -48.81,0.04 -49.93,0.04z" fill="#D3F2F0" id="svg_188"/>
     <path d="m313.44,70.18c0,1.25 -1.09,2.27 -2.43,2.27l-9.27,0c-1.34,0 -2.43,-1.02 -2.43,-2.27l0,0c0,-1.25 1.09,-2.27 2.43,-2.27l9.27,0c1.34,0 2.43,1.02 2.43,2.27l0,0z" fill="#F2CE1B" id="svg_189"/>
     <g id="svg_190">
      <path d="m319.47,103.84c-2.21,0 -4.93,-1.47 -6.04,-3.26l-14.19,-22.91c-1.12,-1.79 -3.83,-3.25 -6.05,-3.25l-40.59,0c-2.21,0 -4.93,1.46 -6.05,3.25l-14.19,22.91c-1.11,1.79 -3.83,3.26 -6.05,3.26l-76.2,0c-2.21,0 -4.94,-1.47 -6.05,-3.26l-14.19,-22.91c-1.11,-1.79 -3.83,-3.25 -6.05,-3.25l-40.59,0c-2.21,0 -4.93,1.46 -6.04,3.25l-14.19,22.91c-1.12,1.79 -3.83,3.26 -6.05,3.26l-13.46,0c-2.21,0 -3.69,1.67 -3.28,3.71l0.42,2.09c0.4,2.04 2.55,3.71 4.76,3.71l16.06,0c2.21,0 4.95,-1.46 6.08,-3.24l15.83,-24.91c1.13,-1.78 3.88,-3.24 6.08,-3.24l28.15,0c2.21,0 4.95,1.45 6.08,3.24l15.78,24.9c1.13,1.78 3.87,3.24 6.08,3.24l85.35,0c2.21,0 4.95,-1.46 6.08,-3.24l15.77,-24.9c1.13,-1.79 3.87,-3.24 6.08,-3.24l28.15,0c2.21,0 4.95,1.45 6.08,3.24l15.83,24.91c1.14,1.78 3.88,3.24 6.09,3.24l9.28,0c2.21,0 4.37,-1.67 4.77,-3.71l0.42,-2.09c0.4,-2.04 -1.07,-3.71 -3.28,-3.71l-6.69,0z" fill="#3B3939" id="svg_191"/>
     </g>
     <path d="m53.38,67.34l-6.22,0l0,16.33l6.22,0c1,0 1.8,-0.75 1.8,-1.69l0,-12.95c0,-0.93 -0.81,-1.69 -1.8,-1.69z" fill="#403938" id="svg_192"/>
     <rect fill="#FF8717" height="3.58" id="svg_193" width="6.02" x="47.37" y="73.97"/>
     <rect fill="#FF0A0A" height="0" id="svg_194" width="0.21" x="47.16" y="73.97"/>
     <g id="svg_195">
      <path d="m51.58,68.86l-4.43,0l0,5.11l0.21,0l0.67,0l5.34,0l0,-3.42c0,-0.93 -0.81,-1.69 -1.8,-1.69z" fill="#FF0A0A" id="svg_196"/>
      <path d="m47.37,77.55l-0.21,0l0,4.59l4.43,0c1,0 1.8,-0.75 1.8,-1.69l0,-2.9l-5.34,0l-0.67,0z" fill="#FFD20A" id="svg_197"/>
     </g>
     <path d="m47.37,81.6c0,1.75 -1.51,3.17 -3.38,3.17l-19.01,0c-1.86,0 -3.38,-1.41 -3.38,-3.17l0,-42c0,-1.74 1.52,-3.17 3.38,-3.17l19.01,0c1.87,0 3.38,1.42 3.38,3.17l0,42z" fill="#302F2B" id="svg_198"/>
     <path d="m134.34,16.37c-1.98,0 -4.11,1.45 -4.72,3.22l-11.65,33.7c-0.61,1.76 -1.12,4.73 -1.12,6.59l0,5.59c0,1.86 1.62,3.38 3.61,3.38l6.65,0c1.98,0 4.38,1.35 5.31,2.98l14.16,24.74c0.94,1.63 3.33,2.97 5.31,2.97l23.77,0c1.98,0 3.61,0 3.61,0l0,-83.17c0,0 -1.63,0 -3.61,0l-41.35,0z" fill="none" id="svg_199" stroke="#B00707" stroke-miterlimit="10"/>
     <path d="m182.91,16.37c-1.98,0 -3.6,0 -3.6,0l0,83.18c0,0 1.62,0 3.6,0l42.32,0c1.98,0 4.37,-1.35 5.29,-2.99l13.23,-23.39c0.94,-1.64 1.69,-4.51 1.69,-6.37l0,-10.32c0,-1.86 -0.94,-4.62 -2.08,-6.14l-23.52,-31.21c-1.15,-1.52 -3.7,-2.76 -5.69,-2.76l-31.24,0z" fill="none" id="svg_200" stroke="#B00707" stroke-miterlimit="10"/>
     <g id="svg_201" opacity="0.6">
      <path d="m152.75,19.75c-1.33,0 -2.66,0 -4,0l-19.72,12.92l-1.18,3.39l24.89,-16.31z" fill="#FFFFFF" id="svg_202"/>
      <path d="m182.73,28.86l13.91,-9.11c-4.13,0 -8.82,0 -13.91,0l0,9.11z" fill="#FFFFFF" id="svg_203"/>
      <path d="m133.49,19.84l-2.65,7.63l11.79,-7.72c-3.02,0 -6.03,0 -9.02,0l-0.12,0.08z" fill="#FFFFFF" id="svg_204"/>
      <path d="m92.49,19.78l-29.11,19.07c-2.85,7.22 -5.62,14.25 -5.62,14.25l4.84,0l50.87,-33.33c-7.86,0 -15.04,0.01 -20.99,0.01z" fill="#FFFFFF" id="svg_205"/>
      <path d="m123.47,19.77c-1.91,0 -3.8,0 -5.66,0l-50.88,33.34l5.65,0l50.89,-33.34z" fill="#FFFFFF" id="svg_206"/>
      <path d="m182.73,41.85l32.9,-21.55c-0.51,-0.27 -1.06,-0.45 -1.66,-0.49c-0.19,-0.01 -1.32,-0.02 -3.21,-0.03l-28.03,18.36l0,3.71z" fill="#FFFFFF" id="svg_207"/>
      <polygon fill="#FFFFFF" id="svg_208" points="174.66221780174556,34.14470291137695 174.66221780174556,20.029184341430664 124.18034154065708,53.107215881347656 145.72225107881013,53.107215881347656 "/>
      <path d="m219.14,23.6c-0.02,-0.02 -0.04,-0.04 -0.06,-0.06l-36.36,23.82l0,5.74l0.24,0l39.16,-25.66c-1.59,-2.07 -2.71,-3.53 -2.99,-3.85z" fill="#FFFFFF" id="svg_209"/>
      <path d="m234.15,43.29c-2.19,-2.9 -4.6,-6.09 -6.84,-9.05l-28.8,18.86l20.66,0l14.98,-9.82z" fill="#FFFFFF" id="svg_210"/>
      <polygon fill="#FFFFFF" id="svg_211" points="174.66221780174556,52.647891998291016 173.96065485847566,53.107215881347656 174.66221780174556,53.107215881347656 "/>
      <polygon fill="#FFFFFF" id="svg_212" points="174.66221780174556,47.134098052978516 174.66221780174556,43.424560546875 159.88524017832924,53.107215881347656 165.54701393447567,53.107215881347656 "/>
      <polygon fill="#FFFFFF" id="svg_213" points="120.39977443678754,34.3144645690918 123.04697312550661,26.680437088012695 82.716019522431,53.107215881347656 91.71950533875088,53.107215881347656 "/>
      <polygon fill="#FFFFFF" id="svg_214" points="117.42646777778782,42.89264678955078 118.59907727352356,39.510433197021484 97.84830170876694,53.107215881347656 101.83720746552854,53.107215881347656 "/>
     </g>
     <path d="m135.87,62.01c0,0.78 -0.67,1.41 -1.51,1.41l-8.68,0c-0.84,0 -1.51,-0.62 -1.51,-1.41l0,0c0,-0.77 0.67,-1.41 1.51,-1.41l8.68,0c0.84,0 1.51,0.63 1.51,1.41l0,0z" fill="#302F2B" id="svg_215"/>
     <path d="m197.56,62.01c0,0.78 -0.67,1.41 -1.5,1.41l-8.69,0c-0.83,0 -1.5,-0.62 -1.5,-1.41l0,0c0,-0.77 0.67,-1.41 1.5,-1.41l8.69,0c0.83,0 1.5,0.63 1.5,1.41l0,0z" fill="#302F2B" id="svg_216"/>
    </g>
    <path d="m244.24,51.84c0,1.75 -1.51,3.18 -3.38,3.18l-4.75,0c-1.87,0 -3.38,-1.42 -3.38,-3.18l0,-10.5c0,-1.74 1.51,-3.17 3.38,-3.17l4.75,0c1.87,0 3.38,1.42 3.38,3.17l0,10.5z" fill="#403938" id="svg_217"/>
    <g id="svg_218">
     <g id="svg_219">
      <ellipse cx="671.84" cy="493.97" fill="#1A1A1A" id="svg_220" rx="28.39" ry="28.39" transform="matrix(0.22013 -0.920347 0.982179 0.206272 -529.886 628.963)"/>
      <ellipse cx="670.24" cy="488.99" fill="#A3A3A3" id="svg_221" rx="18.27" ry="18.27" transform="matrix(0.229491 -0.918367 0.980066 0.215043 -529.858 622.905)"/>
      <circle cx="103.17" cy="112.51" fill="#3B3939" id="svg_222" r="13.24"/>
      <g id="svg_223">
       <g id="svg_224">
        <path d="m101.74,111.56c-0.03,0.26 -0.27,0.47 -0.56,0.45l0,0c-0.28,-0.03 -0.5,-0.25 -0.48,-0.53l1.03,-13.25c0.02,-0.27 0.27,-0.47 0.55,-0.45l0,0c0.28,0.02 0.5,0.25 0.48,0.52l-1.02,13.26z" fill="#A3A3A3" id="svg_225"/>
        <path d="m104.6,111.56c0.02,0.26 0.27,0.47 0.56,0.45l0,0c0.28,-0.03 0.49,-0.25 0.47,-0.53l-1.02,-13.25c-0.02,-0.27 -0.27,-0.47 -0.55,-0.45l0,0c-0.29,0.02 -0.5,0.25 -0.48,0.52l1.02,13.26z" fill="#A3A3A3" id="svg_226"/>
       </g>
       <g id="svg_227">
        <path d="m104.6,113.47c0.02,-0.27 0.27,-0.47 0.56,-0.45l0,0c0.28,0.02 0.49,0.25 0.47,0.52l-1.02,13.26c-0.02,0.26 -0.27,0.47 -0.55,0.45l0,0c-0.29,-0.02 -0.5,-0.25 -0.48,-0.53l1.02,-13.25z" fill="#A3A3A3" id="svg_228"/>
        <path d="m101.74,113.47c-0.03,-0.27 -0.27,-0.47 -0.56,-0.45l0,0c-0.28,0.02 -0.5,0.25 -0.48,0.52l1.03,13.26c0.02,0.26 0.27,0.47 0.55,0.45l0,0c0.28,-0.02 0.5,-0.25 0.48,-0.53l-1.02,-13.25z" fill="#A3A3A3" id="svg_229"/>
       </g>
      </g>
      <g id="svg_230">
       <g id="svg_231">
        <path d="m101.57,113.21c0.24,0.15 0.3,0.45 0.14,0.67l0,0c-0.16,0.23 -0.48,0.29 -0.71,0.14l-11.8,-7.39c-0.24,-0.15 -0.3,-0.45 -0.14,-0.68l0,0c0.16,-0.23 0.48,-0.28 0.72,-0.13l11.79,7.39z" fill="#A3A3A3" id="svg_232"/>
        <path d="m102.99,110.87c0.26,0.12 0.57,0.02 0.69,-0.23l0,0c0.12,-0.25 0.01,-0.54 -0.24,-0.65l-12.8,-5.73c-0.26,-0.11 -0.57,-0.02 -0.69,0.23l0,0c-0.12,0.25 -0.02,0.54 0.24,0.65l12.8,5.73z" fill="#A3A3A3" id="svg_233"/>
       </g>
       <g id="svg_234">
        <path d="m104.77,111.82c-0.24,-0.15 -0.3,-0.45 -0.15,-0.68l0,0c0.16,-0.23 0.48,-0.28 0.72,-0.13l11.8,7.39c0.23,0.15 0.3,0.45 0.14,0.68l0,0c-0.16,0.22 -0.48,0.28 -0.72,0.13l-11.79,-7.39z" fill="#A3A3A3" id="svg_235"/>
        <path d="m103.35,114.15c-0.26,-0.11 -0.57,-0.01 -0.69,0.24l0,0c-0.12,0.25 -0.01,0.53 0.24,0.65l12.8,5.73c0.26,0.11 0.57,0.01 0.69,-0.24l0,0c0.12,-0.25 0.01,-0.53 -0.24,-0.65l-12.8,-5.73z" fill="#A3A3A3" id="svg_236"/>
       </g>
      </g>
      <g id="svg_237">
       <g id="svg_238">
        <path d="m104.77,113.21c-0.24,0.15 -0.3,0.45 -0.15,0.67l0,0c0.16,0.23 0.48,0.29 0.72,0.14l11.8,-7.39c0.23,-0.15 0.3,-0.45 0.14,-0.68l0,0c-0.16,-0.23 -0.48,-0.28 -0.72,-0.13l-11.79,7.39z" fill="#A3A3A3" id="svg_239"/>
        <path d="m103.35,110.87c-0.26,0.12 -0.57,0.02 -0.69,-0.23l0,0c-0.12,-0.25 -0.01,-0.54 0.24,-0.65l12.8,-5.73c0.26,-0.11 0.57,-0.02 0.69,0.23l0,0c0.12,0.25 0.01,0.54 -0.24,0.65l-12.8,5.73z" fill="#A3A3A3" id="svg_240"/>
       </g>
       <g id="svg_241">
        <path d="m101.57,111.82c0.24,-0.15 0.3,-0.45 0.14,-0.68l0,0c-0.16,-0.23 -0.48,-0.28 -0.71,-0.13l-11.8,7.39c-0.24,0.15 -0.3,0.45 -0.14,0.68l0,0c0.16,0.22 0.48,0.28 0.72,0.13l11.79,-7.39z" fill="#A3A3A3" id="svg_242"/>
        <path d="m102.99,114.15c0.26,-0.11 0.57,-0.01 0.69,0.24l0,0c0.12,0.25 0.01,0.53 -0.24,0.65l-12.8,5.73c-0.26,0.11 -0.57,0.01 -0.69,-0.24l0,0c-0.12,-0.25 -0.02,-0.53 0.24,-0.65l12.8,-5.73z" fill="#A3A3A3" id="svg_243"/>
       </g>
      </g>
      <path d="m109.61,112.51c0,3.4 -2.89,6.17 -6.44,6.17c-3.56,0 -6.44,-2.76 -6.44,-6.17c0,-3.4 2.88,-6.17 6.44,-6.17c3.56,0 6.44,2.76 6.44,6.17z" fill="#B8B8B8" id="svg_244"/>
      <path d="m106.66,112.51c0,1.85 -1.56,3.35 -3.49,3.35c-1.93,0 -3.49,-1.5 -3.49,-3.35c0,-1.85 1.56,-3.34 3.49,-3.34c1.93,-0.01 3.49,1.49 3.49,3.34z" fill="#D6D6D6" id="svg_245"/>
     </g>
     <g id="svg_246">
      <ellipse cx="839.14" cy="489.51" fill="#1A1A1A" id="svg_247" rx="28.39" ry="28.39" transform="matrix(0.228484 -0.918555 0.980267 0.2141 -398.599 778.509)"/>
      <ellipse cx="838.95" cy="488.99" fill="#A3A3A3" id="svg_248" rx="18.27" ry="18.27" transform="matrix(0.229491 -0.918367 0.980066 0.215043 -398.759 777.834)"/>
      <circle cx="272.98" cy="112.51" fill="#3B3939" id="svg_249" r="13.24"/>
      <g id="svg_250">
       <g id="svg_251">
        <path d="m271.54,111.56c-0.02,0.26 -0.27,0.47 -0.55,0.45l0,0c-0.29,-0.03 -0.5,-0.25 -0.48,-0.53l1.02,-13.25c0.02,-0.27 0.27,-0.47 0.56,-0.45l0,0c0.28,0.02 0.5,0.25 0.47,0.52l-1.02,13.26z" fill="#A3A3A3" id="svg_252"/>
        <path d="m274.41,111.56c0.02,0.26 0.27,0.47 0.55,0.45l0,0c0.29,-0.03 0.5,-0.25 0.48,-0.53l-1.02,-13.25c-0.02,-0.27 -0.27,-0.47 -0.56,-0.45l0,0c-0.28,0.02 -0.5,0.25 -0.48,0.52l1.03,13.26z" fill="#A3A3A3" id="svg_253"/>
       </g>
       <g id="svg_254">
        <path d="m274.41,113.47c0.02,-0.27 0.27,-0.47 0.55,-0.45l0,0c0.29,0.02 0.5,0.25 0.48,0.52l-1.02,13.26c-0.02,0.26 -0.27,0.47 -0.56,0.45l0,0c-0.28,-0.02 -0.5,-0.25 -0.48,-0.53l1.03,-13.25z" fill="#A3A3A3" id="svg_255"/>
        <path d="m271.54,113.47c-0.02,-0.27 -0.27,-0.47 -0.55,-0.45l0,0c-0.29,0.02 -0.5,0.25 -0.48,0.52l1.02,13.26c0.02,0.26 0.27,0.47 0.56,0.45l0,0c0.28,-0.02 0.5,-0.25 0.47,-0.53l-1.02,-13.25z" fill="#A3A3A3" id="svg_256"/>
       </g>
      </g>
      <g id="svg_257">
       <g id="svg_258">
        <path d="m271.38,113.21c0.23,0.15 0.3,0.45 0.14,0.67l0,0c-0.16,0.23 -0.48,0.29 -0.72,0.14l-11.79,-7.39c-0.24,-0.15 -0.3,-0.45 -0.14,-0.68l0,0c0.16,-0.23 0.48,-0.28 0.71,-0.13l11.8,7.39z" fill="#A3A3A3" id="svg_259"/>
        <path d="m272.8,110.87c0.25,0.12 0.56,0.02 0.69,-0.23l0,0c0.12,-0.25 0.01,-0.54 -0.25,-0.65l-12.8,-5.73c-0.25,-0.11 -0.56,-0.02 -0.68,0.23l0,0c-0.13,0.25 -0.02,0.54 0.24,0.65l12.8,5.73z" fill="#A3A3A3" id="svg_260"/>
       </g>
       <g id="svg_261">
        <path d="m274.57,111.82c-0.23,-0.15 -0.3,-0.45 -0.14,-0.68l0,0c0.16,-0.23 0.48,-0.28 0.72,-0.13l11.79,7.39c0.24,0.15 0.3,0.45 0.14,0.68l0,0c-0.15,0.22 -0.48,0.28 -0.71,0.13l-11.8,-7.39z" fill="#A3A3A3" id="svg_262"/>
        <path d="m273.15,114.15c-0.25,-0.11 -0.56,-0.01 -0.68,0.24l0,0c-0.13,0.25 -0.02,0.53 0.24,0.65l12.8,5.73c0.25,0.11 0.56,0.01 0.69,-0.24l0,0c0.12,-0.25 0.01,-0.53 -0.25,-0.65l-12.8,-5.73z" fill="#A3A3A3" id="svg_263"/>
       </g>
      </g>
      <g id="svg_264">
       <g id="svg_265">
        <path d="m274.57,113.21c-0.23,0.15 -0.3,0.45 -0.14,0.67l0,0c0.16,0.23 0.48,0.29 0.72,0.14l11.79,-7.39c0.24,-0.15 0.3,-0.45 0.14,-0.68l0,0c-0.15,-0.23 -0.48,-0.28 -0.71,-0.13l-11.8,7.39z" fill="#A3A3A3" id="svg_266"/>
        <path d="m273.15,110.87c-0.25,0.12 -0.56,0.02 -0.68,-0.23l0,0c-0.13,-0.25 -0.02,-0.54 0.24,-0.65l12.8,-5.73c0.25,-0.11 0.56,-0.02 0.69,0.23l0,0c0.12,0.25 0.01,0.54 -0.25,0.65l-12.8,5.73z" fill="#A3A3A3" id="svg_267"/>
       </g>
       <g id="svg_268">
        <path d="m271.38,111.82c0.23,-0.15 0.3,-0.45 0.14,-0.68l0,0c-0.16,-0.23 -0.48,-0.28 -0.72,-0.13l-11.79,7.39c-0.24,0.15 -0.3,0.45 -0.14,0.68l0,0c0.16,0.22 0.48,0.28 0.71,0.13l11.8,-7.39z" fill="#A3A3A3" id="svg_269"/>
        <path d="m272.8,114.15c0.25,-0.11 0.56,-0.01 0.69,0.24l0,0c0.12,0.25 0.01,0.53 -0.25,0.65l-12.8,5.73c-0.25,0.11 -0.56,0.01 -0.68,-0.24l0,0c-0.13,-0.25 -0.02,-0.53 0.24,-0.65l12.8,-5.73z" fill="#A3A3A3" id="svg_270"/>
       </g>
      </g>
      <ellipse cx="272.98" cy="112.51" fill="#B8B8B8" id="svg_271" rx="6.44" ry="6.17"/>
      <path d="m276.48,112.51c0,1.85 -1.57,3.35 -3.49,3.35c-1.93,0 -3.5,-1.5 -3.5,-3.35c0,-1.85 1.57,-3.34 3.5,-3.34c1.92,-0.01 3.49,1.49 3.49,3.34z" fill="#D6D6D6" id="svg_272"/>
     </g>
    </g>
   </g>
  </g>
 </g>
</svg>