<?xml version="1.0"?>
<svg width="350" height="150" xmlns="http://www.w3.org/2000/svg" xmlns:svg="http://www.w3.org/2000/svg" enable-background="new 0 0 800 800" version="1.1" xml:space="preserve">
 <!-- Created with SVG-edit - https://github.com/SVG-Edit/svgedit-->
 <title>auto3</title>
 <g class="layer">
  <title>Layer 1</title>
  <g id="svg_4">
   <g id="svg_6">
    <g id="svg_7">
     <rect fill="#3D3D3D" height="44.26" id="svg_8" width="248.11" x="39.04" y="65.84"/>
     <path d="m189.71,17.62c0,0 63.62,24.01 76.74,35.48l0,5.88l-21.3,-1.69l-59.56,-35.63l4.12,-4.05z" fill="#D3F2F0" id="svg_9"/>
     <path d="m322.36,77.1c-2.77,-3.5 -10.81,-15.12 -55.91,-24c0,0 -4.35,2.47 -13.84,-0.57c-9.49,-3.06 -54.41,-27.54 -57.17,-29.17c-2.76,-1.64 -7.42,-2.92 -5.73,-5.74c0,0 -16.76,-7.14 -22.7,-7.14c-5.94,0 -99.74,0 -107.16,0c-7.43,0 -9.98,1.63 -14.22,7.01c-4.25,5.38 -15.92,24.82 -18.46,28.79c-2.55,3.98 -3.4,6.56 -3.4,9.36c0,2.81 0,40.96 0,40.96l13.71,18.15l5.48,0l0,-10.11l0,0c0,-0.01 0,-0.03 0,-0.04c0,-17.07 12.55,-30.91 28.02,-30.91c15.48,0 28.02,13.83 28.02,30.91c0,0.01 0,0.03 0,0.04l0,0l0,10.11l124.65,0l0,-10.11l0,0c0,-0.01 0,-0.03 0,-0.04c0,-17.07 12.54,-30.91 28.02,-30.91c15.47,0 28.02,13.83 28.02,30.91c0,0.01 0,0.03 0,0.04l0,0l0,10.11l35.38,0c0,0 11.64,-9.31 11.64,-14.26s-1.58,-19.92 -4.35,-23.41z" fill="#8625F7" id="svg_10"/>
     <path d="m23.77,96.61l13.71,18.15l5.48,0l0,-10.11l0,0c0,-0.01 0,-0.03 0,-0.04c0,-17.07 12.54,-30.91 28.02,-30.91c15.47,0 28.02,13.83 28.02,30.91c0,0.01 0,0.03 0,0.04l0,0l0,10.11l124.65,0l0,-10.11l0,0c0,-0.01 0,-0.03 0,-0.04c0,-17.07 12.54,-30.91 28.02,-30.91c15.47,0 28.02,13.83 28.02,30.91c0,0.01 0,0.03 0,0.04l0,0l0,10.11l35.38,0c0,0 11.64,-9.31 11.64,-14.26s-1.58,-19.92 -4.35,-23.41c-0.43,-0.54 -0.97,-1.26 -1.75,-2.13l-296.84,-12.78c0,11.65 0,34.42 0,34.42z" fill="#790FF2" id="svg_11"/>
     <path d="m54.41,15.53c-1.78,0.5 -3.02,1.33 -4.07,2.68c-1.93,2.46 -6.2,8.63 -7.92,11.99c-1.73,3.36 -2.75,6.61 -1.53,9.3c1.22,2.69 7.22,4.49 10.98,4.71c0.32,0.02 1.94,0.13 4.62,0.32l-2.08,-29z" fill="#302F2B" id="svg_12"/>
     <path d="m93.55,14.96l-10.89,31.4c17.29,1.22 39.87,2.81 62.4,4.41l-4.34,-35.81c-12.64,0 -31.09,0 -47.17,0zm80.67,2.54c-5.3,-2.34 -7.21,-2.54 -20.16,-2.54c-1.87,0 -5.05,0 -9.13,0l4.38,36.11c44.71,3.17 87.94,6.22 87.94,6.22s-57.72,-37.46 -63.03,-39.8zm-119.9,-1.93c0.03,-0.01 0.06,-0.02 0.09,-0.02l0,-0.01c-0.03,0.01 -0.06,0.02 -0.09,0.03zm5.88,-0.61c-2.45,0 -4.31,0.17 -5.79,0.58l2.08,28.99c4.26,0.3 11.23,0.78 20.02,1.4l10.75,-30.97c-14.01,0 -25.12,0 -27.06,0z" fill="#D3F2F0" id="svg_13"/>
     <path d="m27.16,46.28c-2.54,3.98 -3.39,6.56 -3.39,9.36c0,1.51 0,13.28 0,23.82l3.9,0c1.87,0 3.39,-1.68 3.39,-3.75l0,-35.73c-1.77,2.87 -3.19,5.18 -3.9,6.29z" fill="#302F2B" id="svg_14"/>
     <path d="m292.11,69.38c0,0 6.25,2.08 12.16,12.31c1.93,3.34 2.53,4.3 3.8,4.44c1.27,0.14 14.12,0 14.12,0s3.17,-13.49 -30.08,-16.75z" fill="#DEDBCC" id="svg_15"/>
     <path d="m292.11,69.38c0,0 0.74,0.25 1.93,0.98c25.39,4.38 22.72,15.77 22.72,15.77s-3.32,0.04 -6.76,0.06c3.93,0.04 12.19,-0.06 12.19,-0.06s3.17,-13.49 -30.08,-16.75z" fill="#F0ECDC" id="svg_16"/>
     <path d="m322.27,93.2c0,0.52 -0.38,0.94 -0.85,0.94l-12.4,0c-0.47,0 -0.85,-0.42 -0.85,-0.94l0,-2.58c0,-0.51 0.38,-0.93 0.85,-0.93l12.4,0c0.47,0 0.85,0.42 0.85,0.93l0,2.58z" fill="#F0ECDC" id="svg_17"/>
     <path d="m204.03,54.94c19.71,1.39 33.22,2.35 33.22,2.35s-13.67,-8.87 -28.32,-18.24l0,0c0,0 3.81,9.3 -4.9,15.89z" fill="#302F2B" id="svg_18"/>
     <path d="m326.3,99.29c-1.81,0 -27.95,0 -47.03,0c0.27,1.73 0.42,3.5 0.42,5.32c0,0.01 0,0.03 0,0.04l0,0l0,10.27c17.74,0 40.85,0 42.33,0c2.23,0 3.28,-1.96 3.53,-2.96c0.25,-0.98 2.99,-8.14 3.61,-10.2c0.62,-2.06 0,-2.47 -2.86,-2.47z" fill="#302F2B" id="svg_19"/>
     <path d="m42.96,104.65l0,0c0,-0.01 0,-0.03 0,-0.04c0,-4.72 0.96,-9.2 2.68,-13.19c-6.08,0 -17.33,0 -20.41,0c-4.27,0 -5.21,0.61 -4.27,3.68c0.93,3.09 5.02,13.78 5.39,15.25c0.37,1.47 1.94,4.41 5.27,4.41c1.96,0 7.07,0 11.34,0l0,-10.11z" fill="#302F2B" id="svg_20"/>
     <g id="svg_21">
      <rect fill="#302F2B" height="7.67" id="svg_22" width="124.65" x="99" y="107.1"/>
     </g>
     <g id="svg_23" opacity="0.6">
      <path d="m76.62,45.62l-0.35,0.3c0.08,0 0.16,0.01 0.24,0.01l0.11,-0.31z" fill="#FFFFFF" id="svg_24"/>
      <path d="m80.44,34.62l2.12,-6.13l-19.91,16.47c1.49,0.1 3.12,0.22 4.87,0.34l12.92,-10.68z" fill="#FFFFFF" id="svg_25"/>
      <path d="m113.72,14.96l-28.28,23.37l-2.79,8.03c0.45,0.03 0.92,0.07 1.38,0.1l38.11,-31.5c-2.75,0 -5.57,0 -8.42,0z" fill="#FFFFFF" id="svg_26"/>
      <path d="m87.26,14.96c-4.34,0 -8.41,0 -12.01,0l-19.71,16.3l0.95,13.27c0.73,0.04 1.54,0.11 2.42,0.17l25.28,-20.9l3.07,-8.83z" fill="#FFFFFF" id="svg_27"/>
      <path d="m93.01,16.51l1.87,-1.56c-0.44,0 -0.89,0 -1.33,0l-0.54,1.56z" fill="#FFFFFF" id="svg_28"/>
      <path d="m104.23,14.96c-1.78,0 -3.54,0 -5.29,0l-7.56,6.24l-2.12,6.13l14.97,-12.38z" fill="#FFFFFF" id="svg_29"/>
      <path d="m131.62,14.96c-1.22,0 -2.46,0 -3.74,0l-38.56,31.88c1.13,0.08 2.28,0.15 3.44,0.24l38.86,-32.12z" fill="#FFFFFF" id="svg_30"/>
      <path d="m191.7,28.08c-1.67,-1.05 -3.27,-2.05 -4.79,-3l-31.93,26.38c2.61,0.19 5.2,0.38 7.77,0.55l28.95,-23.93z" fill="#FFFFFF" id="svg_31"/>
      <path d="m179.36,20.43l-30.69,25.37l0.48,3.98l33.26,-27.49c-1.1,-0.68 -2.13,-1.31 -3.05,-1.86z" fill="#FFFFFF" id="svg_32"/>
      <path d="m210.86,40.28c-3.61,-2.32 -7.31,-4.69 -10.91,-6.97l-23.79,19.66c6.2,0.44 12.18,0.86 17.82,1.26l16.88,-13.94z" fill="#FFFFFF" id="svg_33"/>
      <path d="m143.63,38.99l-1.83,-15.15l-29.76,24.6c6.02,0.43 12.26,0.87 18.58,1.31l13.01,-10.75z" fill="#FFFFFF" id="svg_34"/>
      <path d="m147.46,35.83l23.67,-19.56c-3.54,-1.19 -6.9,-1.31 -17.07,-1.31c-0.43,0 -0.95,0 -1.52,0l-6.92,5.72l1.84,15.14z" fill="#FFFFFF" id="svg_35"/>
      <path d="m144.84,48.96l-2,1.65c0.74,0.04 1.48,0.1 2.22,0.15l-0.22,-1.81z" fill="#FFFFFF" id="svg_36"/>
     </g>
     <rect fill="#FFD20A" height="5.56" id="svg_37" width="4.89" x="23.77" y="63.79"/>
     <g id="svg_38">
      <path d="m28.66,63.79l0,-19.9c-0.64,1.04 -1.15,1.85 -1.5,2.39c-2.54,3.98 -3.39,6.56 -3.39,9.36c0,0.74 0,3.89 0,8.14l4.89,0z" fill="#FF0A0A" id="svg_39"/>
      <path d="m23.77,69.35c0,2.29 0,4.71 0,7.13l1.5,0c1.87,0 3.39,-1.68 3.39,-3.75l0,-3.38l-4.89,0z" fill="#FF8233" id="svg_40"/>
     </g>
     <path d="m212.07,37.51c-4.4,-0.78 -5.9,2.17 -6.46,6.04c-0.57,3.88 0.01,7.2 4.41,7.99c4.4,0.78 11.11,-2.38 11.51,-5.15c0.41,-2.77 -5.06,-8.1 -9.46,-8.88z" fill="#42413C" id="svg_41"/>
     <path d="m154.74,104.09c0,0 51.13,0 56.73,0c5.61,0 6.48,-4.57 6.88,-6.89c2.13,-12.49 10.06,-25.36 24.86,-28.61c2.31,-0.51 7.45,-0.22 7.45,-5.51c0,-2.37 0,-4.44 0,-4.44s-71.74,-41.75 -74.32,-43.06c-2.58,-1.31 -5.95,-2.85 -13.48,-2.85c-7.53,0 -72.14,0.87 -72.14,0.87l-19.32,55.77c13.48,0 31.81,14.85 31.81,29.49c0,3.5 0.99,5.24 3.96,5.24c2.97,0 47.57,0 47.57,0l-12.49,-91.15" fill="none" id="svg_42" stroke="#660DCC" stroke-miterlimit="10"/>
     <path d="m102.44,59.85c0,0.83 -0.61,1.5 -1.37,1.5l-12.8,0c-0.75,0 -1.36,-0.67 -1.36,-1.5l0,-1.53c0,-0.84 0.61,-1.51 1.36,-1.51l12.8,0c0.76,0 1.37,0.67 1.37,1.51l0,1.53z" fill="#302F2B" id="svg_43"/>
     <path d="m169.6,59.85c0,0.83 -0.61,1.5 -1.37,1.5l-12.8,0c-0.75,0 -1.36,-0.67 -1.36,-1.5l0,-1.53c0,-0.84 0.61,-1.51 1.36,-1.51l12.8,0c0.76,0 1.37,0.67 1.37,1.51l0,1.53z" fill="#302F2B" id="svg_44"/>
    </g>
    <g id="svg_45">
     <ellipse cx="488.12" cy="373.07" fill="#1C1C1A" id="svg_46" rx="25.12" ry="25.12" transform="matrix(0.165 -1.08786 0.9863 0.181991 -377.424 568.77)"/>
     <circle cx="71.07" cy="105.67" fill="#6E6E68" id="svg_47" r="15.08"/>
     <circle cx="71.07" cy="105.67" fill="#C7C7BB" id="svg_48" r="12.06"/>
     <ellipse cx="220.68" cy="109.27" fill="#363636" id="svg_49" rx="8.52" ry="8.52" transform="matrix(0.9247 -0.419903 0.3807 1.01992 -174.599 86.8862)"/>
     <g id="svg_50">
      <path d="m71.74,115.34c0,0.42 -0.3,0.75 -0.67,0.75l0,0c-0.38,0 -0.68,-0.33 -0.68,-0.75l0,-5.87c0,-0.41 0.3,-0.74 0.68,-0.74l0,0c0.37,0 0.67,0.33 0.67,0.74l0,5.87z" fill="#9C9C93" id="svg_51"/>
      <path d="m71.74,101.54c0,0.41 -0.3,0.75 -0.67,0.75l0,0c-0.38,0 -0.68,-0.33 -0.68,-0.75l0,-5.87c0,-0.41 0.3,-0.74 0.68,-0.74l0,0c0.37,0 0.67,0.33 0.67,0.74l0,5.87z" fill="#9C9C93" id="svg_52"/>
     </g>
     <g id="svg_53">
      <g id="svg_54">
       <path d="m71.74,115.34c0,0.42 -0.3,0.75 -0.67,0.75l0,0c-0.38,0 -0.68,-0.33 -0.68,-0.75l0,-5.87c0,-0.41 0.3,-0.74 0.68,-0.74l0,0c0.37,0 0.67,0.33 0.67,0.74l0,5.87z" fill="#9C9C93" id="svg_55"/>
       <path d="m71.74,101.54c0,0.41 -0.3,0.75 -0.67,0.75l0,0c-0.38,0 -0.68,-0.33 -0.68,-0.75l0,-5.87c0,-0.41 0.3,-0.74 0.68,-0.74l0,0c0.37,0 0.67,0.33 0.67,0.74l0,5.87z" fill="#9C9C93" id="svg_56"/>
      </g>
      <g id="svg_57">
       <path d="m79.98,104.76c0.37,0 0.68,0.33 0.68,0.75l0,0c0,0.41 -0.3,0.75 -0.68,0.75l-5.32,0c-0.37,0 -0.67,-0.34 -0.67,-0.75l0,0c0,-0.42 0.3,-0.75 0.67,-0.75l5.32,0z" fill="#9C9C93" id="svg_58"/>
       <path d="m67.47,104.76c0.37,0 0.68,0.33 0.68,0.75l0,0c0,0.41 -0.31,0.75 -0.68,0.75l-5.32,0c-0.37,0 -0.68,-0.34 -0.68,-0.75l0,0c0,-0.42 0.31,-0.75 0.68,-0.75l5.32,0z" fill="#9C9C93" id="svg_59"/>
      </g>
     </g>
     <g id="svg_60">
      <g id="svg_61">
       <path d="m71.74,115.34c0,0.42 -0.3,0.75 -0.67,0.75l0,0c-0.38,0 -0.68,-0.33 -0.68,-0.75l0,-5.87c0,-0.41 0.3,-0.74 0.68,-0.74l0,0c0.37,0 0.67,0.33 0.67,0.74l0,5.87z" fill="#9C9C93" id="svg_62"/>
       <path d="m71.74,101.54c0,0.41 -0.3,0.75 -0.67,0.75l0,0c-0.38,0 -0.68,-0.33 -0.68,-0.75l0,-5.87c0,-0.41 0.3,-0.74 0.68,-0.74l0,0c0.37,0 0.67,0.33 0.67,0.74l0,5.87z" fill="#9C9C93" id="svg_63"/>
      </g>
      <g id="svg_64">
       <path d="m79.98,104.76c0.37,0 0.68,0.33 0.68,0.75l0,0c0,0.41 -0.3,0.75 -0.68,0.75l-5.32,0c-0.37,0 -0.67,-0.34 -0.67,-0.75l0,0c0,-0.42 0.3,-0.75 0.67,-0.75l5.32,0z" fill="#9C9C93" id="svg_65"/>
       <path d="m67.47,104.76c0.37,0 0.68,0.33 0.68,0.75l0,0c0,0.41 -0.31,0.75 -0.68,0.75l-5.32,0c-0.37,0 -0.68,-0.34 -0.68,-0.75l0,0c0,-0.42 0.31,-0.75 0.68,-0.75l5.32,0z" fill="#9C9C93" id="svg_66"/>
      </g>
     </g>
     <g id="svg_67">
      <g id="svg_68">
       <path d="m77.85,111.93c0.26,0.3 0.26,0.77 0,1.06l0,0c-0.27,0.29 -0.7,0.29 -0.96,0l-3.76,-4.15c-0.27,-0.3 -0.27,-0.76 0,-1.06l0,0c0.26,-0.29 0.69,-0.29 0.96,0l3.76,4.15z" fill="#9C9C93" id="svg_69"/>
       <path d="m69,102.18c0.27,0.29 0.27,0.76 0,1.05l0,0c-0.26,0.3 -0.69,0.3 -0.96,0l-3.76,-4.15c-0.26,-0.29 -0.26,-0.76 0,-1.05l0,0c0.27,-0.3 0.7,-0.3 0.96,0l3.76,4.15z" fill="#9C9C93" id="svg_70"/>
      </g>
      <g id="svg_71">
       <path d="m76.89,98.03c0.27,-0.3 0.69,-0.3 0.96,0l0,0c0.26,0.29 0.26,0.76 0,1.05l-3.76,4.15c-0.27,0.3 -0.7,0.3 -0.96,0l0,0c-0.27,-0.29 -0.27,-0.76 0,-1.05l3.76,-4.15z" fill="#9C9C93" id="svg_72"/>
       <path d="m68.04,107.78c0.27,-0.29 0.7,-0.29 0.96,0l0,0c0.27,0.3 0.27,0.77 0,1.06l-3.76,4.15c-0.26,0.29 -0.69,0.29 -0.96,0l0,0c-0.26,-0.3 -0.26,-0.76 0,-1.06l3.76,-4.15z" fill="#9C9C93" id="svg_73"/>
      </g>
     </g>
     <circle cx="71.07" cy="105.62" fill="#B3B3A8" id="svg_74" r="4.27"/>
    </g>
    <g id="svg_75">
     <ellipse cx="660.47" cy="347.9" fill="#1C1C1A" id="svg_76" rx="25.12" ry="25.12" transform="matrix(0.2322 -1.07286 0.9727 0.256111 -240.007 725.119)"/>
     <circle cx="251.75" cy="105.67" fill="#6E6E68" id="svg_77" r="15.08"/>
     <circle cx="251.75" cy="105.67" fill="#C7C7BB" id="svg_78" r="12.06"/>
     <ellipse cx="657.36" cy="339.74" fill="#363636" id="svg_79" rx="8.52" ry="8.52" transform="matrix(0.2541 -1.0668 0.9672 0.280266 -243.866 711.737)"/>
     <g id="svg_80">
      <path d="m252.43,115.34c0,0.42 -0.31,0.75 -0.68,0.75l0,0c-0.38,0 -0.68,-0.33 -0.68,-0.75l0,-5.87c0,-0.41 0.3,-0.74 0.68,-0.74l0,0c0.37,0 0.68,0.33 0.68,0.74l0,5.87z" fill="#9C9C93" id="svg_81"/>
      <path d="m252.43,101.54c0,0.41 -0.31,0.75 -0.68,0.75l0,0c-0.38,0 -0.68,-0.33 -0.68,-0.75l0,-5.87c0,-0.41 0.3,-0.74 0.68,-0.74l0,0c0.37,0 0.68,0.33 0.68,0.74l0,5.87z" fill="#9C9C93" id="svg_82"/>
     </g>
     <g id="svg_83">
      <g id="svg_84">
       <path d="m252.43,115.34c0,0.42 -0.31,0.75 -0.68,0.75l0,0c-0.38,0 -0.68,-0.33 -0.68,-0.75l0,-5.87c0,-0.41 0.3,-0.74 0.68,-0.74l0,0c0.37,0 0.68,0.33 0.68,0.74l0,5.87z" fill="#9C9C93" id="svg_85"/>
       <path d="m252.43,101.54c0,0.41 -0.31,0.75 -0.68,0.75l0,0c-0.38,0 -0.68,-0.33 -0.68,-0.75l0,-5.87c0,-0.41 0.3,-0.74 0.68,-0.74l0,0c0.37,0 0.68,0.33 0.68,0.74l0,5.87z" fill="#9C9C93" id="svg_86"/>
      </g>
      <g id="svg_87">
       <path d="m260.66,104.76c0.38,0 0.68,0.33 0.68,0.75l0,0c0,0.41 -0.3,0.75 -0.68,0.75l-5.32,0c-0.37,0 -0.67,-0.34 -0.67,-0.75l0,0c0,-0.42 0.3,-0.75 0.67,-0.75l5.32,0z" fill="#9C9C93" id="svg_88"/>
       <path d="m248.15,104.76c0.38,0 0.68,0.33 0.68,0.75l0,0c0,0.41 -0.3,0.75 -0.68,0.75l-5.32,0c-0.37,0 -0.67,-0.34 -0.67,-0.75l0,0c0,-0.42 0.3,-0.75 0.67,-0.75l5.32,0z" fill="#9C9C93" id="svg_89"/>
      </g>
     </g>
     <g id="svg_90">
      <g id="svg_91">
       <path d="m252.43,115.34c0,0.42 -0.31,0.75 -0.68,0.75l0,0c-0.38,0 -0.68,-0.33 -0.68,-0.75l0,-5.87c0,-0.41 0.3,-0.74 0.68,-0.74l0,0c0.37,0 0.68,0.33 0.68,0.74l0,5.87z" fill="#9C9C93" id="svg_92"/>
       <path d="m252.43,101.54c0,0.41 -0.31,0.75 -0.68,0.75l0,0c-0.38,0 -0.68,-0.33 -0.68,-0.75l0,-5.87c0,-0.41 0.3,-0.74 0.68,-0.74l0,0c0.37,0 0.68,0.33 0.68,0.74l0,5.87z" fill="#9C9C93" id="svg_93"/>
      </g>
      <g id="svg_94">
       <path d="m260.66,104.76c0.38,0 0.68,0.33 0.68,0.75l0,0c0,0.41 -0.3,0.75 -0.68,0.75l-5.32,0c-0.37,0 -0.67,-0.34 -0.67,-0.75l0,0c0,-0.42 0.3,-0.75 0.67,-0.75l5.32,0z" fill="#9C9C93" id="svg_95"/>
       <path d="m248.15,104.76c0.38,0 0.68,0.33 0.68,0.75l0,0c0,0.41 -0.3,0.75 -0.68,0.75l-5.32,0c-0.37,0 -0.67,-0.34 -0.67,-0.75l0,0c0,-0.42 0.3,-0.75 0.67,-0.75l5.32,0z" fill="#9C9C93" id="svg_96"/>
      </g>
     </g>
     <g id="svg_97">
      <g id="svg_98">
       <path d="m258.53,111.93c0.26,0.3 0.26,0.77 0,1.06l0,0c-0.27,0.29 -0.69,0.29 -0.96,0l-3.76,-4.15c-0.26,-0.3 -0.26,-0.76 0,-1.06l0,0c0.27,-0.29 0.7,-0.29 0.96,0l3.76,4.15z" fill="#9C9C93" id="svg_99"/>
       <path d="m249.68,102.18c0.27,0.29 0.27,0.76 0,1.05l0,0c-0.26,0.3 -0.69,0.3 -0.95,0l-3.76,-4.15c-0.27,-0.29 -0.27,-0.76 0,-1.05l0,0c0.26,-0.3 0.69,-0.3 0.95,0l3.76,4.15z" fill="#9C9C93" id="svg_100"/>
      </g>
      <g id="svg_101">
       <path d="m257.57,98.03c0.27,-0.3 0.7,-0.3 0.96,0l0,0c0.27,0.29 0.27,0.76 0,1.05l-3.76,4.15c-0.26,0.3 -0.69,0.3 -0.96,0l0,0c-0.26,-0.29 -0.26,-0.76 0,-1.05l3.76,-4.15z" fill="#9C9C93" id="svg_102"/>
       <path d="m248.73,107.78c0.26,-0.29 0.69,-0.29 0.95,0l0,0c0.27,0.3 0.27,0.77 0,1.06l-3.76,4.15c-0.26,0.29 -0.69,0.29 -0.95,0l0,0c-0.27,-0.3 -0.27,-0.76 0,-1.06l3.76,-4.15z" fill="#9C9C93" id="svg_103"/>
      </g>
     </g>
     <path d="m256.02,105.62c0,2.6 -1.91,4.72 -4.27,4.72c-2.36,0 -4.27,-2.12 -4.27,-4.72c0,-2.6 1.91,-4.71 4.27,-4.71c2.36,0 4.27,2.11 4.27,4.71z" fill="#B3B3A8" id="svg_104"/>
    </g>
   </g>
  </g>
 </g>
</svg>